<?xml version="1.0" encoding="UTF-8" standalone="no"?>
<!-- Created with Inkscape (http://www.inkscape.org/) -->

<svg
   version="1.1"
   id="svg1"
   width="106"
   height="99"
   viewBox="0 0 106 99"
   xmlns="http://www.w3.org/2000/svg"
   xmlns:svg="http://www.w3.org/2000/svg">
  <defs
     id="defs1" />
  <g
     id="g1"
     transform="translate(-288.89086,-3.956143)"
     style="fill:#ffe6d5">
    <path
       style="fill:#ffe6d5"
       d="m 308.92198,101.193 c -5.93579,-1.573466 -12.84687,-8.097782 -17.31663,-16.347549 -2.37255,-4.378978 -2.70969,-6.117839 -2.71443,-14 -0.006,-10.039954 0.45162,-11.263887 7.93293,-21.216238 6.09323,-8.105789 10.82205,-10.425718 22.18558,-10.884104 4.65593,-0.187812 8.89354,-0.606125 9.41691,-0.929584 0.52336,-0.323459 0.95408,-2.24905 0.95715,-4.279091 0.0109,-7.243281 1.95422,-11.343798 8.67512,-18.305446 8.18097,-8.474008 14.02626,-11.2408208 23.8193,-11.2746253 11.87227,-0.040982 21.60966,5.6527365 28.78269,16.8300183 2.99406,4.66546 3.17112,5.473871 3.17577,14.5 0.003,5.257489 -0.31558,10.660277 -0.70731,12.006196 -2.08202,7.153472 -15.88256,21.101123 -20.00115,20.214356 -0.4125,-0.08881 -0.75,0.176018 -0.75,0.588518 0,0.847587 -3.63934,1.269805 -12.75,1.47919 l -6.25,0.14364 v 4.376535 c 0,10.274802 -11.13348,23.489322 -22.59821,26.822214 -5.30534,1.5423 -16.54519,1.68421 -21.85772,0.27597 z m 20.95593,-2.968345 c 2.2,-0.610304 6.19629,-2.857794 8.88063,-4.994423 2.68435,-2.13663 5.19208,-3.884781 5.57275,-3.884781 2.02054,0 5.51449,-9.956128 5.87758,-16.748402 0.46685,-8.733213 -1.29799,-13.909131 -6.65801,-19.526509 -15.82482,-16.584662 -42.47464,-12.127252 -49.68544,8.310312 -5.16443,14.637562 3.48255,32.802851 17.51249,36.78965 4.80328,1.364916 13.68133,1.390904 18.5,0.05415 z m -14.8752,-15.348302 c -4.57067,-1.629211 -7.65911,-4.249535 -3.6248,-3.07539 5.71703,1.663882 13.82382,1.778861 16.90891,0.23982 1.78596,-0.890958 3.31573,-1.140878 3.65208,-0.596646 0.74024,1.197734 -7.2679,4.864347 -10.56099,4.835459 -1.375,-0.01206 -4.24384,-0.643521 -6.3752,-1.403243 z m -5.69719,-19.118128 c -1.07014,-1.289442 -1.05447,-1.716334 0.089,-2.423006 1.67512,-1.035281 2.98344,-0.373001 2.98344,1.510232 0,2.15339 -1.63872,2.640237 -3.07239,0.912774 z m 20.07239,-0.853757 c 0,-0.79254 0.35899,-1.662848 0.79775,-1.934017 1.27929,-0.790646 3.5252,1.043449 2.77135,2.263197 -0.9922,1.605409 -3.5691,1.367741 -3.5691,-0.32918 z m 41.85935,2.33061 c 4.54871,-1.179438 6.32527,-2.412696 11.74538,-8.153477 3.51232,-3.720118 6.33483,-7.095118 6.27224,-7.5 -0.0626,-0.404882 -0.0261,-0.96115 0.0811,-1.23615 0.43181,-1.107589 1.10011,-4.74821 1.68649,-9.187369 0.86324,-6.535083 -2.72397,-16.488126 -7.78474,-21.599492 -6.3079,-6.370957 -12.04964,-8.7131386 -21.35984,-8.7131386 -7.09629,0 -8.6213,0.3501285 -13.5,3.0994856 -6.8978,3.887209 -12.44493,11.409817 -14.02463,19.019161 -1.11141,5.353646 -0.58331,11.381353 0.99714,11.381353 0.44748,0 3.72243,2.8125 7.27766,6.25 4.63895,4.485327 7.11543,7.859934 8.77105,11.951954 1.58107,3.907777 2.96333,5.844196 4.39288,6.154006 3.15368,0.683461 9.46504,0.08428 15.44525,-1.466333 z M 355.05029,42.519155 c -7.28849,-7.344767 -8.33295,-10.513135 -4.67238,-14.173704 2.09212,-2.09212 7.43645,-2.720864 8.5,-1 0.33992,0.55 1.68992,1 3,1 1.31008,0 2.66008,-0.45 3,-1 0.33992,-0.55 2.13382,-1 3.98644,-1 3.51261,0 7.51356,3.615902 7.51356,6.790468 0,2.204138 -4.15859,7.31883 -9.77191,12.018571 l -4.88334,4.088561 z m 14.57762,-4.479316 c 1.5125,-1.549803 2.75,-3.428247 2.75,-4.174318 0,-5.288346 -5.02472,-6.306735 -7.5,-1.52007 -1.93111,3.73436 -3.99345,3.829187 -5.70304,0.262229 -1.47624,-3.080052 -4.1733,-4.02471 -6.345,-2.22236 -2.47584,2.05477 -1.6415,4.205317 3.7493,9.663924 l 5.20127,5.266684 2.54873,-2.229132 c 1.40181,-1.226023 3.78624,-3.497153 5.29874,-5.046957 z"
       id="path2" />
  </g>
</svg>
