<?xml version="1.0" encoding="UTF-8" standalone="no"?>
<!-- Created with Inkscape (http://www.inkscape.org/) -->

<svg
   version="1.1"
   id="svg1"
   width="81"
   height="91"
   viewBox="0 0 81 91"
   xmlns="http://www.w3.org/2000/svg"
   xmlns:svg="http://www.w3.org/2000/svg">
  <defs
     id="defs1" />
  <g
     id="g1"
     transform="translate(-58.274793,-108.04614)"
     style="fill:#ffe6d5">
    <path
       style="fill:#ffe6d5"
       d="m 124.2659,193.20616 c -17.2296,-11.45589 -58.60776,-39.78064 -62.241107,-42.60614 -2.983974,-2.32052 -3.75,-3.58901 -3.75,-6.20975 0,-4.568 2.223507,-6.27677 5.776371,-4.43915 1.489507,0.7704 13.286672,8.75434 26.215912,17.74207 12.929244,8.98774 29.018594,20.01274 35.754114,24.5 12.56758,8.37265 14.43477,10.58312 12.30345,14.56552 -1.77151,3.31011 -4.94243,2.50885 -14.05874,-3.55255 z m 11.0089,2.17212 c 0.825,-0.0145 1.5,-0.70143 1.5,-1.52643 0,-0.97998 -0.77734,-1.39199 -2.24223,-1.18846 -1.58389,0.22007 -2.0846,-0.0992 -1.70535,-1.08756 0.5013,-1.30635 -6.20047,-6.65366 -8.94669,-7.13852 -0.60815,-0.10737 -2.61582,-1.63302 -4.46149,-3.39034 -1.84566,-1.75731 -3.94566,-3.19512 -4.66666,-3.19512 -0.72101,0 -1.49802,-0.5613 -1.7267,-1.24734 -0.25762,-0.77288 -0.86668,-0.40481 -1.60121,0.96768 -0.97471,1.82126 -0.8761,2.57631 0.55468,4.24734 0.95707,1.11778 2.28051,2.03232 2.94097,2.03232 0.66045,0 2.55022,1.34939 4.19948,2.99865 1.87054,1.87054 3.59241,2.77081 4.57693,2.39301 0.96137,-0.36891 1.57474,-0.0752 1.56925,0.75135 -0.0121,1.82688 6.21267,6.85176 7.49244,6.04817 0.55912,-0.35107 1.69158,-0.65021 2.51658,-0.66475 z m -6.43571,-5.2333 c -0.54268,-1.4252 -0.42782,-1.54006 0.55979,-0.5598 0.68342,0.67834 0.99068,1.48525 0.68279,1.79313 -0.30789,0.30789 -0.86705,-0.24711 -1.24258,-1.23333 z m -6.56429,-3.29313 c 0,-0.55 0.45,-1 1,-1 0.55,0 1,0.45 1,1 0,0.55 -0.45,1 -1,1 -0.55,0 -1,-0.45 -1,-1 z m -8.5,-6 c 0.33992,-0.55 1.04147,-1 1.55901,-1 0.51754,0 0.94099,0.45 0.94099,1 0,0.55 -0.70156,1 -1.55902,1 -0.85746,0 -1.2809,-0.45 -0.94098,-1 z m -5.76647,-4.94492 c 1.11751,-1.78942 -0.47585,-3.11635 -19.928914,-16.59641 -11.62894,-8.05832 -21.707762,-14.86801 -22.397383,-15.13264 -0.68962,-0.26463 -1.741554,0.43013 -2.337629,1.5439 -0.985738,1.84187 0.0702,2.81715 11.673312,10.78157 7.01639,4.81609 16.80708,11.57412 21.75708,15.01786 4.950004,3.44374 9.229254,6.27693 9.509454,6.29599 0.2802,0.0191 1.05603,-0.84056 1.72408,-1.91027 z m -45.976529,-34.6314 c -0.984183,-0.98419 -2.757008,0.52668 -2.757008,2.34962 0,1.52648 0.131535,1.52374 1.690476,-0.0352 0.929762,-0.92976 1.409701,-1.97125 1.066532,-2.31442 z m -2.153434,-4.25609 c -1.277365,-2.06682 1.685017,-9.21379 5.040079,-12.15957 2.237802,-1.96482 5.2692,-3.2837 9.42804,-4.10191 6.53721,-1.28611 9.62208,-3.59196 10.55053,-7.88621 1.07932,-4.99203 1.41014,-5.58556 2.30566,-4.13659 1.08342,1.75301 -0.66225,7.25072 -3.38755,10.66857 -1.70541,2.13878 -3.39628,2.89903 -7.76687,3.49213 -7.30671,0.99155 -11.272242,3.98705 -13.623951,10.29134 -1.04552,2.80275 -2.152441,4.46893 -2.545938,3.83224 z m 5.396426,-1.56183 c 0,-1.31684 1.305545,-3.79184 2.90121,-5.5 2.582743,-2.76483 3.520793,-3.10576 8.545453,-3.10576 4.6872,0 6.06815,-0.4239 8.14425,-2.5 2.84839,-2.84839 3.40909,-3.04153 3.40909,-1.17431 0,0.72912 -1.14477,2.40113 -2.54392,3.71557 -2.02384,1.9013 -3.4949,2.3485 -7.19556,2.18744 -5.52813,-0.2406 -8.99069,1.6988 -10.436182,5.84535 -1.232395,3.53525 -2.824341,3.83495 -2.824341,0.53171 z"
       id="path2" />
  </g>
</svg>
