<?xml version="1.0" encoding="UTF-8" standalone="no"?>
<!-- Created with Inkscape (http://www.inkscape.org/) -->

<svg
   version="1.1"
   id="svg1"
   width="124"
   height="87"
   viewBox="0 0 124 87"
   xmlns="http://www.w3.org/2000/svg"
   xmlns:svg="http://www.w3.org/2000/svg">
  <defs
     id="defs1" />
  <g
     id="g1"
     transform="translate(-43.866688,-117.38753)"
     style="fill:#ffe6d5">
    <path
       style="fill:#ffe6d5"
       d="m 77.055918,200.84731 c -2.42735,-2.42736 -3.4,-4.30103 -3.4,-6.54966 0,-7.79316 6.46198,-12.57309 13.16425,-9.73761 6.5437,2.7684 8.87708,7.69059 6.26009,13.20547 -3.34069,7.04 -10.65874,8.4474 -16.02434,3.0818 z m 11.29831,-1.10124 c 4.51618,-3.16325 3.71408,-10.07857 -1.44146,-12.42759 -5.57765,-2.54135 -10.25685,0.3915 -10.25685,6.42883 0,6.36081 6.45539,9.67105 11.69831,5.99876 z m 27.051672,1.42113 c -2.83647,-1.65209 -5.01824,-6.82857 -4.32951,-10.27221 2.20735,-11.03677 16.64466,-11.54698 19.56773,-0.69152 1.26294,4.69019 0.17258,8.05325 -3.36182,10.36908 -2.83225,1.85576 -9.16666,2.17293 -11.8764,0.59465 z m 11.5825,-4.13553 c 2.38375,-2.87437 1.55399,-7.50615 -1.88717,-10.53436 -3.37317,-2.96837 -5.01006,-2.83909 -8.52223,0.67308 -3.65171,3.6517 -3.77355,7.31736 -0.35679,10.73412 2.07003,2.07002 3.18195,2.44741 5.75,1.95153 1.75104,-0.33811 4.00833,-1.60908 5.01619,-2.82437 z m -0.99319,-17.7191 c -3.55625,-2.16845 -4.70729,-4.81944 -4.49558,-10.35393 0.30116,-7.87282 4,-11.85214 16.25556,-17.48821 7.45654,-3.42911 11.90073,-6.92781 11.90073,-9.3689 0,-0.38542 -1.165,-2.08529 -2.58889,-3.77749 -1.91482,-2.27564 -3.43669,-3.07673 -5.84501,-3.07673 -3.62351,0 -4.90883,1.19025 -8.97483,8.31106 -3.08427,5.40148 -5.7629,6.87367 -9.88928,5.43521 -8.31669,-2.89922 -8.6702,-16.54276 -0.63677,-24.57619 12.44361,-12.44361 34.15883,-7.67505 42.47759,9.32789 7.11216,14.53673 -0.12351,29.61215 -16.5626,34.50792 -5.96071,1.77518 -7.42811,2.64888 -8.81562,5.2489 -2.33996,4.38478 -5.75647,7.74587 -7.86913,7.74147 -0.9875,-0.002 -3.21778,-0.871 -4.95617,-1.931 z m 9.65559,-6.04406 c 1.95156,-3.34617 3.61016,-4.82437 6.55863,-5.84529 2.17057,-0.75157 5.79787,-2.01248 8.06066,-2.80203 11.98627,-4.18233 17.31604,-18.51144 11.32305,-30.44209 -2.18264,-4.34513 -8.95561,-10.6237 -13.51553,-12.52896 -8.20791,-3.42948 -21.65174,-0.1016 -26.37262,6.52826 -4.1555,5.83587 -3.99022,14.75091 0.32591,17.57895 3.29747,2.16059 5.0894,1.10075 8.57186,-5.06983 5.01081,-8.87868 12.04027,-10.70093 18.26699,-4.73535 3.50867,3.36152 3.7245,8.1021 0.53617,11.77695 -1.2375,1.42634 -6.50544,4.71393 -11.70654,7.30577 -5.20109,2.59183 -10.24021,5.83742 -11.19804,7.21242 -2.88011,4.13454 -3.20604,9.02491 -0.85401,12.81408 2.9768,4.79568 6.53255,4.1584 10.00347,-1.79288 z m -61.880582,5.3463 c -2.88681,-2.022 -6.06301,-8.81065 -6.09233,-13.02144 -0.0129,-1.84771 2.04883,-7.20886 4.97803,-12.94466 5.2389,-10.25851 6.04468,-14.21387 3.42857,-16.82997 -2.27658,-2.27659 -7.62165,-1.97184 -10.37298,0.59141 -2.14631,1.99959 -2.2754,2.70853 -1.71037,9.39287 0.53507,6.32989 0.35584,7.55461 -1.43961,9.83716 -6.46376,8.21735 -20.46477,-4.24091 -18.5093,-16.46978 2.1843,-13.65986 14.93422,-22.98699 29.6042,-21.65676 12.93943,1.17331 22.39097,10.43751 23.71257,23.24257 0.62251,6.03157 -2.06182,13.03919 -7.64927,19.96889 -3.01817,3.74321 -3.16874,4.31009 -2.5533,9.61272 0.61535,5.30194 0.49344,5.76123 -2.06311,7.77221 -3.23659,2.5459 -8.10915,2.76293 -11.3331,0.50478 z m 10.47113,-8.31521 c -0.56876,-5.02718 -0.35817,-6.06436 1.85023,-9.11257 1.37062,-1.89185 3.85409,-5.68972 5.51881,-8.43972 5.38322,-8.8927 3.55412,-19.21695 -4.72739,-26.68345 -9.0337,-8.14467 -24.23876,-7.92227 -33.09919,0.48413 -8.82556,8.37333 -9.34271,20.13355 -1.18714,26.99601 3.7248,3.13421 5.27437,3.34533 7.58614,1.03356 1.37493,-1.37492 1.54854,-2.80157 0.98327,-8.08004 -0.43443,-4.05663 -0.27139,-7.41244 0.44406,-9.13968 2.1119,-5.09857 9.37784,-7.60151 14.36152,-4.94719 6.17475,3.28869 6.10468,7.80191 -0.31574,20.33666 -5.5727,10.87975 -6.18623,15.04212 -2.98994,20.28456 2.4343,3.99265 5.49644,5.28344 9.34838,3.94065 2.81884,-0.98266 2.85762,-1.09886 2.22699,-6.67292 z"
       id="path2" />
  </g>
</svg>
