<?xml version="1.0" encoding="iso-8859-1"?>
<!-- Generator: Adobe Illustrator 24.1.2, SVG Export Plug-In . SVG Version: 6.00 Build 0)  -->
<svg version="1.1" xmlns="http://www.w3.org/2000/svg" xmlns:xlink="http://www.w3.org/1999/xlink" x="0px" y="0px"
	 viewBox="0 0 48 48" style="enable-background:new 0 0 48 48;" xml:space="preserve">
<g id="Layer_10" style="display:none;">
</g>
<g id="hand_drawn">
</g>
<g id="color_hand_drawn">
</g>
<g id="rounded">
	<polygon style="fill:#9FDADF;" points="34.973,7.828 35.69,18.946 44.185,18.277 43.857,12.132 43.826,7.712 	"/>
	<path style="fill:#73A1B2;" d="M35.619,18.765c0,0,0.108,6.767-0.196,8.544c1.726,0.236,9.406,0.383,9.406,0.383
		s-0.838-6.529-0.81-7.655c0.028-1.125-0.07-1.761-0.07-1.761L35.619,18.765z"/>
	<polygon style="fill:#1E4384;" points="25.109,27.554 35.619,27.31 35.087,31.726 29.332,34.859 24.603,31.598 	"/>
	<path style="fill:#73A1B2;" d="M24.799,8.397L35.296,7.81l0.394,10.744c0,0-8.153-0.668-10.517-0.342
		C25.141,16.386,24.799,8.397,24.799,8.397z"/>
	<g>
		<path style="fill:#1E4384;" d="M14.085,8.84c9.731-0.5,19.802-1.139,29.545-1.014c0,0,0.458-3.758-2.023-3.911
			c-2.48-0.153-13.042-0.49-16.516-0.355s-9.242-0.176-10.38,1.426S13.864,7.963,14.085,8.84z"/>
	</g>
	<path style="fill:#4B7BB2;" d="M12.777,32.975c0,0,0.112,8.085,0.322,10.189c0.145,1.289-0.118,1.979,4.023,2.076
		c4.141,0.097,24.72,0.135,24.72,0.135s3.453-0.454,3.554-1.281c-1.726-1.177-4.801-3.475-6.554-4.272
		c-1.754-0.796-9.717-5.086-10.359-5.494c-0.642-0.408-5.424-3.878-5.424-3.878L12.777,32.975z"/>
	<path style="fill:#4B7BB2;" d="M29.5,34.761c0,0,4.01-2.341,5.411-2.88c0.161-1.768,0.347-3.647,0.385-4.327
		c1.473,0.052,4.266-0.003,6.104,0c0.632,0.001,3.149-2.506,3.149-2.506s1.674-0.375,1.674,0.961c0,6.9,0.371,13.308-0.908,17.651
		C41.629,41.419,29.5,34.761,29.5,34.761z"/>
	<path style="fill:#4B7BB2;" d="M23.825,18.428c0,0,3.9-0.449,5.675-0.282c1.775,0.167,6.119,0.619,6.119,0.619
		s-0.004,6.445-0.209,8.699c-2.12,0.045-12.05,0-12.05,0L23.825,18.428z"/>
	<path style="fill:#4B7BB2;" d="M13.58,14.767V9.037l11.4-0.711c0,0,0.638,6.956,0.377,8.766
		C23.563,16.618,13.58,14.767,13.58,14.767z"/>
	<g>
		<path style="fill:#1E4384;" d="M16.675,12.731c-3.543,0.184-6.892,0.255-10.435,0.439c-1.184,0.062-2.489,0.176-3.312,1.034
			c-0.686,0.715-0.856,1.77-0.972,2.756c-0.53,4.539-0.584,9.134-0.16,13.684c0.118,1.271,0.359,2.69,1.392,3.432
			c0.646,0.464,1.476,0.56,2.266,0.642c5.658,0.587,11.41,1.171,17.003,0.13c0.596-0.111,1.223-0.257,1.658-0.681
			c0.599-0.583,0.668-1.509,0.699-2.347c0.174-4.72,0.348-9.44,0.522-14.161c0.046-1.247,0.065-2.591-0.638-3.619
			c-0.824-1.204-2.421-1.62-3.875-1.59S18.129,12.746,16.675,12.731z"/>
	</g>
	<g>
		<path style="fill:#D6E5E5;" d="M17.02,18.4c-0.82-0.57-1.84-0.78-2.84-0.78c-1.68,0-5.01,0.28-6.09,4.01
			c-0.54,1.87-0.88,4.64,0.31,6.16c0.41,0.52,1.25,1.36,1.81,1.7c1.51,0.9,2.98,1.18,4.68,0.79c1.38-0.31,2.54-1.36,3.22-2.63
			c0.69-1.26,0.93-2.74,0.94-4.19C19.06,21.56,18.55,19.48,17.02,18.4z M15.46,26.54c-0.21,0.27-0.45,0.53-0.77,0.69
			c-0.24,0.11-0.5,0.17-0.76,0.19c-1.33,0.1-2.62-0.76-3.11-1.89c-0.5-1.13-0.27-2.46,0.39-3.52c0.42-0.67,1.08-1.27,1.91-1.4
			c0.73-0.12,1.54,0.14,1.85,0.39C16.66,22.32,16.75,24.88,15.46,26.54z"/>
	</g>
	<path style="fill:#010101;" d="M25.024,13.742c-0.794-1.06-2.099-1.497-3.373-1.613c-1.643-0.15-3.328,0.111-4.977,0.102
		c-3.231,0.166-6.465,0.247-9.696,0.403c-1.219,0.059-2.541,0.053-3.645,0.647c-1.064,0.572-1.555,1.658-1.756,2.801
		c-0.539,3.077-0.602,6.315-0.557,9.431c0.023,1.591,0.104,3.182,0.243,4.767c0.098,1.12,0.201,2.33,0.811,3.308
		c0.671,1.075,1.782,1.442,2.983,1.588c1.566,0.19,3.143,0.33,4.715,0.463c3.111,0.263,6.244,0.404,9.36,0.149
		c1.412-0.115,3.005-0.197,4.348-0.68c1.162-0.418,1.661-1.379,1.787-2.557c0.157-1.465,0.13-2.967,0.185-4.439
		c0.061-1.64,0.122-3.279,0.183-4.919c0.068-1.811,0.139-3.621,0.202-5.432C25.885,16.387,25.887,14.893,25.024,13.742z
		 M24.853,17.264c-0.028,1.402-0.1,2.804-0.152,4.206c-0.105,2.831-0.211,5.662-0.316,8.493c-0.025,0.68-0.043,1.36-0.076,2.039
		c-0.027,0.545-0.061,1.185-0.397,1.644c-0.327,0.446-0.894,0.58-1.406,0.687c-0.758,0.157-1.531,0.264-2.3,0.351
		c-2.744,0.309-5.515,0.284-8.268,0.115c-1.404-0.086-2.806-0.21-4.206-0.348c-0.679-0.067-1.358-0.136-2.037-0.207
		c-0.638-0.066-1.33-0.106-1.916-0.396c-1.02-0.505-1.301-1.707-1.433-2.743c-0.173-1.364-0.237-2.751-0.287-4.124
		c-0.104-2.813-0.026-5.634,0.232-8.437c0.114-1.237,0.065-3.021,0.99-3.986c0.932-0.972,2.586-0.871,3.82-0.93
		c3.19-0.152,6.384-0.233,9.574-0.397c1.345,0.008,2.685-0.1,4.029-0.128c1.088-0.022,2.315,0.11,3.169,0.857
		C24.814,14.782,24.876,16.102,24.853,17.264z"/>
	<path style="fill:#010101;" d="M16.651,22.637c-0.216-0.712-0.62-1.378-1.182-1.87c-0.68-0.595-1.607-0.759-2.483-0.641
		c-1.591,0.299-2.652,1.912-2.881,3.426c-0.239,1.581,0.454,3.14,1.875,3.916c0.668,0.365,1.434,0.529,2.191,0.422
		c0.837-0.118,1.428-0.636,1.886-1.319C16.814,25.441,17.048,23.941,16.651,22.637z M15.469,25.59
		c-0.225,0.457-0.554,0.987-1.034,1.207c-0.508,0.233-1.157,0.144-1.661-0.054c-1.078-0.424-1.75-1.466-1.723-2.616
		c0.03-1.289,0.852-2.783,2.201-3.036c1.119-0.152,1.989,0.604,2.364,1.601C15.965,23.621,15.907,24.7,15.469,25.59z"/>
	<path style="fill:#010101;" d="M19.203,20.829c-0.39-1.317-1.186-2.539-2.446-3.159c-1.118-0.55-2.399-0.621-3.621-0.506
		c-2.658,0.252-4.733,1.716-5.524,4.329c-0.392,1.391-0.633,2.881-0.456,4.326c0.169,1.377,0.81,2.374,1.807,3.305
		c2.209,2.063,5.847,2.558,8.227,0.494C19.539,27.58,20.051,23.697,19.203,20.829z M17.283,28.041
		c-1.641,2.26-4.867,2.453-7.057,0.853c-1.032-0.754-1.868-1.749-2.065-3.035c-0.208-1.361,0.044-2.788,0.413-4.099
		c0.594-1.96,2.035-3.178,4.035-3.526c2.028-0.352,4.288-0.02,5.294,1.993c0.561,1.123,0.684,2.431,0.637,3.668
		C18.485,25.346,18.149,26.849,17.283,28.041z"/>
	<path style="fill:#010101;" d="M14.08,12.539c0.041-0.994,0.083-1.989,0.124-2.983c0.038-0.911,0.006-1.861,0.171-2.76
		c0.301-1.637,1.616-2.214,3.128-2.395c1.735-0.207,3.517-0.191,5.262-0.242c1.901-0.056,3.803-0.088,5.705-0.097
		c3.804-0.017,7.609,0.06,11.409,0.232c0.758,0.034,1.749-0.085,2.344,0.477c0.608,0.574,0.809,1.547,0.964,2.332
		c0.356,1.809,0.23,3.679,0.147,5.508c-0.188,4.17,0.233,8.3,0.714,12.436c0.073,0.632,1.074,0.639,1,0
		c-0.471-4.056-0.902-8.116-0.724-12.205c0.084-1.928,0.205-3.867-0.131-5.78c-0.252-1.434-0.793-3.264-2.421-3.624
		c-0.924-0.204-1.943-0.148-2.884-0.187c-1.033-0.042-2.066-0.077-3.099-0.106c-2.108-0.058-4.217-0.086-6.326-0.086
		c-2.15,0-4.3,0.031-6.45,0.092c-1.906,0.054-3.859,0.029-5.752,0.279c-1.607,0.213-3.15,0.876-3.704,2.523
		c-0.305,0.907-0.282,1.912-0.322,2.856c-0.052,1.243-0.104,2.486-0.155,3.729C13.053,13.183,14.053,13.182,14.08,12.539
		L14.08,12.539z"/>
	<path style="fill:#010101;" d="M14.085,9.34c9.841-0.507,19.686-1.134,29.545-1.014c0.644,0.008,0.644-0.992,0-1
		C33.772,7.207,23.926,7.834,14.085,8.34C13.445,8.373,13.441,9.374,14.085,9.34L14.085,9.34z"/>
	<path style="fill:#010101;" d="M25.425,18.834c3.141-0.623,6.312,0.138,9.452,0.363c2.919,0.209,5.851-0.124,8.753-0.419
		c0.634-0.065,0.641-1.065,0-1c-2.982,0.304-5.992,0.64-8.99,0.401c-3.166-0.252-6.313-0.938-9.48-0.309
		C24.529,17.995,24.796,18.959,25.425,18.834L25.425,18.834z"/>
	<path style="fill:#010101;" d="M34.661,8.247c0.438,7.656,0.964,15.508-0.171,23.128c-0.094,0.63,0.87,0.901,0.964,0.266
		c1.149-7.717,0.65-15.639,0.206-23.394C35.625,7.607,34.625,7.603,34.661,8.247L34.661,8.247z"/>
	<path style="fill:#010101;" d="M24.48,8.745c0.219,2.583,0.438,5.177,0.377,7.772c-0.015,0.644,0.985,0.644,1,0
		c0.061-2.595-0.158-5.188-0.377-7.772C25.426,8.108,24.425,8.102,24.48,8.745L24.48,8.745z"/>
	<path style="fill:#010101;" d="M24.935,27.965c5.488,0.119,10.977-0.029,16.465,0.089c0.644,0.014,0.644-0.986,0-1
		c-5.488-0.119-10.977,0.029-16.465-0.089C24.291,26.951,24.291,27.951,24.935,27.965L24.935,27.965z"/>
	<path style="fill:#010101;" d="M24.465,32.079c6.13,5.017,13.954,7.32,20.184,12.18c0.502,0.391,1.214-0.312,0.707-0.707
		c-6.231-4.861-14.061-7.169-20.184-12.18C24.678,30.968,23.967,31.671,24.465,32.079L24.465,32.079z"/>
	<path style="fill:#010101;" d="M29.854,35.114c1.748-1.401,3.9-2.262,5.919-3.186c2.066-0.945,3.872-2.128,5.63-3.564
		c0.956-0.781,1.891-1.591,2.874-2.338c0.267-0.203,0.655-0.642,1.035-0.587c0.573,0.083,0.411,0.912,0.41,1.312
		c-0.001,2.726-0.006,5.453-0.049,8.178c-0.022,1.404-0.054,2.808-0.101,4.212c-0.036,1.079-0.043,2.174-0.307,3.227
		c-0.23,0.916-0.68,1.81-1.582,2.214c-1.134,0.508-2.624,0.293-3.832,0.291c-5.572-0.011-11.144-0.022-16.717-0.032
		c-1.513-0.003-3.027,0.011-4.539-0.033c-0.767-0.022-1.533-0.062-2.297-0.134c-0.657-0.062-1.589-0.045-2.183-0.382
		c-0.615-0.349-0.543-1.377-0.597-1.981c-0.068-0.772-0.122-1.545-0.161-2.319c-0.079-1.548-0.096-3.098-0.062-4.647
		c0.014-0.644-0.986-0.644-1,0c-0.034,1.549-0.017,3.099,0.062,4.647c0.037,0.733,0.087,1.465,0.15,2.197
		c0.057,0.657,0.058,1.384,0.293,2.008c0.453,1.206,1.792,1.28,2.897,1.413c1.485,0.178,2.982,0.214,4.476,0.224
		c6.268,0.042,12.538,0.026,18.806,0.038c2.266,0.004,5.26,0.507,6.653-1.753c0.546-0.887,0.74-1.95,0.841-2.971
		c0.138-1.403,0.131-2.828,0.163-4.236c0.072-3.097,0.085-6.195,0.087-9.293c0.001-0.989,0.285-2.438-0.774-3.006
		c-0.906-0.487-1.648,0.146-2.344,0.679c-2.346,1.799-4.471,3.912-7.155,5.22c-2.477,1.206-5.132,2.154-7.303,3.895
		C28.645,34.81,29.356,35.513,29.854,35.114L29.854,35.114z"/>
</g>
<g id="cloud">
</g>
<g id="bubble">
</g>
<g id="win10">
</g>
<g id="ios_x5F_out">
</g>
<g id="ios_x5F_filled">
</g>
<g id="clipart">
</g>
</svg>