<?xml version="1.0" encoding="UTF-8" standalone="no"?>
<!-- Created with Inkscape (http://www.inkscape.org/) -->

<svg
   version="1.1"
   id="svg1"
   width="100"
   height="98"
   viewBox="0 0 100 98"
   xmlns="http://www.w3.org/2000/svg"
   xmlns:svg="http://www.w3.org/2000/svg">
  <defs
     id="defs1" />
  <g
     id="g1"
     transform="translate(-245.39394,-1.6558295)"
     style="fill:#ffe6d5">
    <path
       style="fill:#ffe6d5"
       d="m 300.22181,98.028403 c -4.71501,-1.957283 -5.18008,-3.371652 -2.82838,-8.601518 l 1.92056,-4.271056 -3.48938,-0.856283 c -5.14134,-1.261666 -9.43067,-5.970317 -9.43067,-10.352606 0,-14.76256 25.14965,-20.833648 38.31131,-9.248294 8.49306,7.475898 8.99875,19.130301 1.0434,24.046978 -2.64003,1.631632 -4.20917,1.904616 -7.82829,1.361895 -3.4862,-0.522787 -4.5277,-0.36542 -4.53199,0.684766 -0.003,0.749949 -0.47422,3.051044 -1.04701,5.113544 -0.96806,3.48584 -1.30227,3.74637 -4.74442,3.698472 -2.03665,-0.02834 -5.35546,-0.737495 -7.37513,-1.575898 z m 8.56754,-4.86091 c 0.13494,-0.91938 0.88867,-2.115092 1.67497,-2.657138 1.02126,-0.704029 0.71776,-0.782805 -1.06254,-0.275787 -2.31835,0.660253 -2.38809,0.581692 -1,-1.126452 0.86546,-1.065001 0.96716,-1.520795 0.24216,-1.085228 -0.6875,0.413036 -1.25,0.360426 -1.25,-0.116912 0,-1.895204 2.64362,-4.177856 5.21219,-4.500502 1.4917,-0.187378 3.0667,-0.722341 3.5,-1.188806 0.68973,-0.742531 -1.12839,-0.526338 -7.95815,0.946304 -1.81524,0.391405 -4.19814,-2.729705 -2.99933,-3.928513 0.37638,-0.376384 -0.1792,-0.352967 -1.23463,0.05204 -1.12021,0.429866 -1.4197,0.902791 -0.71952,1.136186 0.6597,0.219897 1.19944,0.860458 1.19944,1.423468 0,0.563011 -0.77378,0.726727 -1.71952,0.363814 -0.94573,-0.362913 -1.39964,-0.339962 -1.00867,0.051 0.39096,0.390964 0.15225,1.401129 -0.53048,2.244811 -0.98317,1.214951 -0.98375,1.379261 -0.003,0.790072 0.84137,-0.505345 1.04757,-0.246223 0.64301,0.808041 -0.32754,0.853566 -1.10989,1.558829 -1.73855,1.567251 -0.67958,0.0091 -0.58143,0.370966 0.24209,0.892513 1.09719,0.694862 0.90805,1.132509 -0.9099,2.105449 -1.95099,1.044136 -2.06149,1.358931 -0.73716,2.100061 0.85681,0.479498 3.17787,0.987655 5.1579,1.129239 1.98003,0.141584 3.60096,0.669925 3.60206,1.174092 0.003,1.465347 1.12775,-0.06767 1.39741,-1.905003 z m 16.46813,-6.128635 c 1.53461,-1.074881 2.13654,-2.274737 1.79547,-3.57899 -0.35262,-1.348411 -0.099,-1.803123 0.81094,-1.453946 1.78756,0.685952 2.54873,-3.698568 1.37811,-7.938222 -1.0376,-3.757886 -2.35683,-5.015714 -3.43347,-3.273674 -0.45192,0.731227 -0.29014,0.902922 0.4309,0.457295 0.63498,-0.392439 1.15451,-0.236968 1.15451,0.345491 0,1.489041 -1.54105,1.316945 -2.90308,-0.3242 -0.89134,-1.074 -0.77144,-1.527703 0.53634,-2.029546 1.46559,-0.562398 1.32318,-1.023264 -1.09661,-3.548983 -2.30522,-2.406135 -3.09107,-2.708957 -4.5941,-1.770302 -0.99725,0.622793 -1.61514,1.45278 -1.3731,1.844415 1.18694,1.920515 -2.83878,-0.05188 -4.26664,-2.090434 -1.1434,-1.632431 -1.22552,-2.092199 -0.26799,-1.500413 2.08822,1.290589 5.96518,1.481463 5.96518,0.293683 0,-0.579022 -1.11921,-0.834406 -2.5,-0.570452 -1.375,0.262848 -2.5,0.09031 -2.5,-0.383423 0,-0.47373 -0.92655,-0.861328 -2.05901,-0.861328 -1.13246,0 -1.78091,0.45 -1.44099,1 0.33992,0.55 0.18962,1 -0.33399,1 -0.52362,0 -1.21105,-0.675 -1.52763,-1.5 -0.33983,-0.88558 -1.84148,-1.5 -3.66601,-1.5 -1.69972,0 -2.85246,0.384995 -2.56165,0.855543 0.29082,0.470549 -0.47012,0.685795 -1.69098,0.478325 -3.14072,-0.533727 -9.75799,3.567462 -12.02832,7.45479 -1.05601,1.80815 -1.53109,3.157899 -1.05572,2.999443 0.90127,-0.300422 1.3643,0.470314 1.3643,2.270916 0,0.58246 -0.38499,0.821078 -0.85554,0.530262 -0.47055,-0.290815 -0.64819,0.555971 -0.39475,1.881746 0.40254,2.10573 0.89759,2.354576 3.91552,1.968186 2.2373,-0.286445 3.22774,-0.07504 2.81059,0.599915 -0.35427,0.573226 -1.50626,0.7686 -2.55997,0.434164 -1.07099,-0.339917 -1.91585,-0.137361 -1.91585,0.459322 0,1.11909 0.14492,1.179692 3.72386,1.557222 1.22312,0.129023 1.99628,-0.133638 1.71814,-0.583692 -0.27815,-0.450053 0.59287,-1.538106 1.9356,-2.417895 2.57614,-1.687957 14.6224,-1.954996 14.6224,-0.324147 0,0.459745 -0.70155,0.8359 -1.55901,0.8359 -0.9238,0 -1.2683,0.470404 -0.8455,1.154509 0.42587,0.689069 0.27595,0.884068 -0.37188,0.483688 -0.59698,-0.368951 -1.36806,-0.21348 -1.71353,0.345491 -0.34546,0.558972 0.22241,1.016312 1.26193,1.016312 1.03952,0 2.49671,-1.133586 3.2382,-2.51908 0.97397,-1.819876 1.56676,-2.16683 2.13571,-1.25 0.43314,0.697994 1.59,1.269674 2.5708,1.270399 0.98081,7.26e-4 1.83953,0.563226 1.90828,1.25 0.0687,0.686775 0.18125,1.725239 0.25,2.307698 0.0687,0.58246 0.575,0.780902 1.125,0.440983 0.55,-0.339919 1,0.08352 1,0.940983 0,0.85746 0.45,1.559017 1,1.559017 1.90787,0 0.98451,-3.231753 -2,-7 -3.14469,-3.970498 -3.58051,-5 -2.11663,-5 0.48585,0 1.16084,1.0125 1.49998,2.25 0.46556,1.698834 0.82748,1.923258 1.47746,0.916154 0.69415,-1.075536 0.97857,-1.027122 1.46864,0.25 0.33608,0.875792 0.0968,1.583846 -0.53515,1.583846 -0.62861,0 -0.22292,1.0125 0.90154,2.25 1.9629,2.160243 2.85798,6.210309 1.1375,5.146995 -0.45834,-0.283266 -0.83334,0.03127 -0.83334,0.698976 0,0.784601 -0.6567,0.619698 -1.85661,-0.466212 -1.6574,-1.499922 -1.99245,-1.516553 -3.12245,-0.154987 -1.47537,1.777713 -4.49713,2.104744 -3.42545,0.37072 0.44563,-0.72104 0.27394,-0.882825 -0.45729,-0.430902 -2.1351,1.319565 -0.0796,2.58541 4.19831,2.58541 2.32017,0 5.25733,-0.727637 6.52703,-1.616971 z M 264.85194,67.905829 c -1.17755,-6.980066 -0.95971,-6.779289 -6.95162,-6.407042 -5.17489,0.32149 -5.73911,0.124305 -9.01342,-3.15 -2.98518,-2.985179 -3.49296,-4.166339 -3.49296,-8.125076 0,-6.328408 1.9708,-10.531079 6.9284,-14.7746 4.5982,-3.935883 10.326,-5.793282 17.8652,-5.793282 14.53412,0 25.49031,11.532293 19.5579,20.586296 -1.87257,2.857911 -6.26394,5.413704 -9.30184,5.413704 -2.44501,0 -2.53318,0.907006 -0.54966,5.654243 0.825,1.974503 1.5,4.232051 1.5,5.016773 0,1.947548 -7.66396,5.280104 -12.20468,5.307022 -3.50718,0.02079 -3.73842,-0.177967 -4.33732,-3.728038 z m 7.542,-1.994012 c 5.31123,-0.5184 7.47908,-1.34187 5.97681,-2.270323 -0.78039,-0.482305 -1.09344,-1.202369 -0.69567,-1.60014 0.39778,-0.397772 -0.0225,-1.54724 -0.93394,-2.554373 -1.28505,-1.419957 -1.34785,-1.831152 -0.27968,-1.831152 0.75762,0 0.26487,-0.766849 -1.09501,-1.704108 -3.69786,-2.548651 -5.06076,-4.618613 -3.63726,-5.524245 0.64488,-0.410278 -0.27183,-0.747856 -2.05386,-0.756334 -2.52911,-0.01203 -3.08842,0.323988 -2.61084,1.568533 0.41314,1.076626 0.83167,1.22159 1.30689,0.452666 0.49834,-0.806334 1.03627,-0.724926 1.87317,0.283475 0.91982,1.108324 0.80501,1.714063 -0.53023,2.797334 -1.14245,0.926861 -1.45672,0.9706 -0.95332,0.132679 0.49204,-0.818992 0.12722,-1.238528 -1.05804,-1.216731 -1.56573,0.02879 -1.49152,0.29777 0.55177,2 2.13818,1.781287 2.07779,2.453474 -0.18512,2.060376 -0.45338,-0.07876 -0.46603,0.430451 -0.0281,1.131579 0.43792,0.701127 0.89145,1.904728 1.00785,2.67467 0.1164,0.769941 0.80405,1.77555 1.52812,2.234687 0.80682,0.51161 0.87996,0.840722 0.18893,0.850106 -0.62016,0.0084 -1.68776,-0.659687 -2.37245,-1.484687 -0.68469,-0.825 -1.73991,-1.5 -2.34495,-1.5 -0.60503,0 -0.11878,0.687315 1.08056,1.527366 1.3659,0.956715 1.97422,2.170973 1.62817,3.25 -0.32236,1.005205 -0.2008,1.306162 0.29189,0.722634 0.46438,-0.55 1.96933,-1.109805 3.34433,-1.244012 z m -10.5,-6.021301 c 1.62907,-1.196858 1.6242,-3.219576 -0.006,-2.593914 -0.81524,0.312838 -1.23329,0.971644 -0.92899,1.464012 0.3043,0.492368 0.0925,0.895215 -0.47056,0.895215 -1.55238,0 -3.14465,-3.58718 -2.74747,-6.189723 0.19391,-1.270652 0.9065,-2.310277 1.58353,-2.310277 0.67703,0 1.93023,-0.9 2.78489,-2 1.17785,-1.515971 1.41268,-1.5888 0.97031,-0.300927 -0.40331,1.174186 -0.15545,1.534776 0.80233,1.167241 0.77395,-0.296993 1.12214,-1.219248 0.78854,-2.0886 -0.48796,-1.271594 -0.25059,-1.36269 1.29579,-0.497291 1.58425,0.886591 2.09506,0.623792 3.13029,-1.610473 0.89318,-1.927674 1.17602,-2.119599 1.01735,-0.690349 -0.18086,1.629205 0.55795,2.086992 4.17398,2.586326 2.41655,0.333699 4.93605,1.348384 5.59887,2.254856 0.66283,0.906471 1.59582,1.317625 2.0733,0.913674 0.47749,-0.403951 0.25637,0.06392 -0.49138,1.039709 -0.74774,0.975791 -1.0704,2.063291 -0.71703,2.416667 0.35338,0.353375 0.6425,0.131624 0.6425,-0.492781 0,-0.624405 0.58789,-0.909691 1.30641,-0.633967 0.71852,0.275723 2.60258,-0.612453 4.18679,-1.973723 2.63537,-2.264512 2.77508,-2.706148 1.64242,-5.192059 -0.99729,-2.188811 -0.985,-2.895247 0.0632,-3.633792 1.03161,-0.726842 1.04092,-1.022282 0.0449,-1.426052 -0.69092,-0.280104 -1.04229,-0.855433 -0.78082,-1.278509 0.26148,-0.423077 -0.6607,-1.836555 -2.04929,-3.141064 -2.26337,-2.12633 -2.45938,-2.167253 -1.89367,-0.395359 0.61754,1.934231 0.60452,1.933728 -0.60902,-0.02353 -0.68202,-1.1 -1.70701,-2.307807 -2.27776,-2.684017 -1.32948,-0.876337 -2.84509,0.03217 -2.0905,1.253115 0.97192,1.572602 -0.21657,1.031065 -1.67026,-0.761056 -0.93256,-1.149661 -0.9718,-1.45126 -0.12245,-0.940983 0.6875,0.413036 1.25,0.30199 1.25,-0.246769 0,-0.548759 -2.04268,-1.304063 -4.53928,-1.678452 -3.65867,-0.548651 -4.95301,-0.318038 -6.6719,1.188727 -1.17293,1.028189 -1.8037,1.306935 -1.40169,0.619435 0.48645,-0.83193 0.0423,-1.25 -1.32811,-1.25 -1.13246,0 -2.05902,0.435877 -2.05902,0.968615 0,0.532739 -0.7875,0.715289 -1.75,0.405668 -1.43988,-0.463189 -1.49013,-0.379161 -0.28354,0.474183 1.03174,0.729678 1.90949,0.683531 2.96093,-0.155668 0.82196,-0.656039 0.52232,0.194702 -0.66587,1.890535 -2.56438,3.659975 -5.06088,4.094382 -4.70123,0.818042 0.29229,-2.662709 -1.70973,-2.31874 -5.2978,0.91022 -1.70538,1.5347 -1.97354,2.331638 -1.12756,3.350988 0.81348,0.980172 0.81246,1.695889 -0.004,2.679426 -0.61257,0.738106 -0.81767,1.638106 -0.45577,2 0.36189,0.361895 0.13299,0.657991 -0.50868,0.657991 -0.64167,0 -1.16667,-0.926557 -1.16667,-2.059017 0,-1.132459 0.45,-1.780902 1,-1.440983 0.55,0.339919 1,0.141477 1,-0.440983 0,-2.473308 -3.65906,0.331405 -3.83684,2.940983 -0.0187,0.275 -0.33845,1.293231 -0.71048,2.262735 -0.3756,0.978799 -0.0708,2.509531 0.68545,3.441959 0.91476,1.127923 0.95525,1.434997 0.12333,0.935327 -0.84137,-0.505345 -1.04757,-0.246223 -0.64301,0.808041 0.77679,2.024283 1.70321,1.958981 3.71291,-0.261715 1.31544,-1.453538 1.39585,-2.089276 0.40499,-3.201772 -1.04625,-1.174689 -0.9691,-1.186024 0.50182,-0.07372 1.47347,1.114234 1.8373,1.05605 2.38916,-0.382074 0.50646,-1.319808 0.83018,-1.406543 1.45804,-0.390649 0.62607,1.012996 0.95522,0.919675 1.46783,-0.416154 0.36343,-0.947086 1.10045,-1.721975 1.63782,-1.721975 0.53737,0 -0.41077,1.752257 -2.10699,3.893905 -3.47444,4.386834 -4.23645,8.758806 -1.33403,7.653838 1.40315,-0.534185 1.50225,-0.41665 0.5,0.593012 -0.6875,0.692585 -1.25,1.619245 -1.25,2.059245 0,1.001069 6.14595,1.029494 7.5,0.03469 z M 283.1818,48.485845 c -1.71688,-2.149411 -1.56132,-3.830016 0.35449,-3.830016 0.56338,0 0.82054,0.5625 0.57147,1.25 -0.24906,0.6875 0.23318,2.0375 1.07166,3 0.83847,0.9625 1.11725,1.74404 0.61951,1.736755 -0.49774,-0.0073 -1.67545,-0.977818 -2.61713,-2.156739 z m -30.92755,7.908969 c -0.81618,-1.525051 -0.55962,-2.430146 1.22833,-4.333334 1.24299,-1.323108 1.76416,-2.405651 1.15815,-2.405651 -0.60601,0 -2.23416,1.446854 -3.61813,3.215231 -2.55107,3.25967 -2.22885,5.451436 0.80145,5.451436 1.13371,0 1.23028,-0.432725 0.4302,-1.927682 z m 46.17488,-8.673243 c -1.5605,-2.915818 -1.25474,-4.911682 0.96481,-6.297815 1.1,-0.686961 2,-1.74603 2,-2.353486 0,-0.607456 -0.9,-1.918955 -2,-2.914441 -1.1,-0.995486 -2,-2.849398 -2,-4.119804 0,-1.286372 0.88618,-2.784095 2,-3.380196 1.1,-0.588702 2,-1.713702 2,-2.5 0,-0.786298 -0.9,-1.911298 -2,-2.5 -1.3013,-0.696439 -2,-2.093823 -2,-4 0,-1.906176 0.6987,-3.303561 2,-4 2.60101,-1.392014 2.54064,-3.397084 -0.15617,-5.187703 -1.68048,-1.1157941 -2.00805,-2.0218335 -1.48477,-4.1067424 0.7754,-3.0894575 5.00395,-4.6845772 7.54572,-2.8464439 3.11899,2.2555619 4.34774,2.4410579 5.2687,0.7953813 1.23918,-2.2142949 8.82652,-2.3470969 8.82652,-0.1544915 0,2.123641 2.6404,1.8596011 5,-0.5 1.1,-1.1 2.675,-2 3.5,-2 0.825,0 2.4,0.9 3.5,2 2.49892,2.4989166 3.23851,2.4989166 5.5,0 2.17471,-2.4030218 4.79222,-2.5649296 6.92857,-0.4285715 2.21413,2.2141298 1.95208,5.3896926 -0.67857,8.223013 l -2.25,2.423343 2.25,1.51308 c 1.42308,0.95699 2.25,2.52599 2.25,4.269135 0,1.743146 -0.82692,3.312146 -2.25,4.269136 l -2.25,1.513079 2.25,2.423344 c 2.91144,3.135742 2.91144,7.105692 0,9.063577 l -2.25,1.513079 2.25,2.423344 c 2.47773,2.668612 2.90263,5.741818 1.05,7.594441 -1.70215,1.702151 -6.74817,1.498638 -7.43837,-0.3 -0.31658,-0.825 -1.44158,-1.5 -2.5,-1.5 -1.05842,0 -2.18342,0.675 -2.5,1.5 -0.35659,0.929252 -1.87858,1.5 -4,1.5 -2.12142,0 -3.64341,-0.570748 -4,-1.5 -0.31658,-0.825 -1.37931,-1.5 -2.36163,-1.5 -0.98231,0 -2.04504,0.675 -2.36162,1.5 -0.35659,0.929252 -1.87859,1.5 -4,1.5 -2.12142,0 -3.64342,-0.570748 -4,-1.5 -0.31659,-0.825 -1.44159,-1.5 -2.5,-1.5 -1.05842,0 -2.18342,0.675 -2.5,1.5 -0.85858,2.237403 -6.34094,1.924275 -7.60319,-0.434258 z m 6.73274,-1.065742 c 0.68696,-1.1 2.07546,-2 3.08556,-2 1.0101,0 2.65103,0.9 3.64651,2 0.99549,1.1 2.53199,2 3.41444,2 0.88246,0 2.16653,-0.9 2.85349,-2 1.463,-2.342633 5.76153,-2.668591 6.5937,-0.5 0.31658,0.825 1.65963,1.5 2.98454,1.5 1.32492,0 2.96914,-0.675 3.65383,-1.5 1.76522,-2.126957 4.63592,-1.857886 6.35441,0.5956 1.04462,1.491404 2.07008,1.90445 3.5567,1.432612 2.4602,-0.780837 2.883,-5.009506 0.58889,-5.889838 -0.825,-0.316582 -1.5,-1.659627 -1.5,-2.984544 0,-1.324917 0.675,-2.969141 1.5,-3.65383 2.08708,-1.732122 1.87142,-4.628587 -0.52292,-7.022918 -1.60672,-1.606721 -1.80522,-2.429685 -0.96481,-4 0.58195,-1.087395 1.49227,-1.977082 2.02292,-1.977082 1.7714,0 0.9921,-4.972711 -1.10849,-7.073301 -1.92563,-1.92563 -1.96024,-2.228338 -0.48587,-4.25 2.38387,-3.2687852 2.83108,-4.5257488 2.19755,-6.1766985 -0.8217,-2.1413013 -3.9367,-1.8532114 -5.4063,0.5 -1.60319,2.5671147 -4.86096,2.5671147 -6.46415,0 -1.60363,-2.567817 -4.93223,-2.567817 -6.53585,0 -1.60319,2.5671147 -4.86096,2.5671147 -6.46415,0 -0.68696,-1.1 -1.97103,-2 -2.85349,-2 -0.88245,0 -2.41895,0.9 -3.41444,2 -2.33536,2.5805503 -5.00481,2.5450723 -6.85122,-0.091056 -1.87114,-2.671423 -5.04452,-2.1217599 -5.48119,0.9493985 -0.21361,1.502372 0.41182,2.8591883 1.75,3.796488 2.62117,1.835937 2.64888,3.879716 0.0824,6.077198 -1.1,0.941849 -2,2.4427 -2,3.335224 0,0.892525 0.9,2.437261 2,3.432747 1.1,0.995486 2,2.411418 2,3.146514 0,0.735096 -0.9,1.898598 -2,2.585559 -1.1,0.686961 -2,2.165766 -2,3.286233 0,1.120467 0.9,2.807816 2,3.749666 1.1,0.941849 2,2.388044 2,3.213767 0,0.825722 -0.9,2.063373 -2,2.750334 -2.2178,1.385043 -2.70097,5.318413 -0.75,6.105646 2.33427,0.941897 3.26671,0.66581 4.51793,-1.337719 z m 10.24664,-10.193952 c -6.29886,-4.275971 -7.79967,-11.110901 -3.78463,-17.235898 3.06823,-4.680644 8.28979,-6.378801 13.91023,-4.52389 5.09191,1.680481 7.8509,5.795893 7.85609,11.718425 0.003,3.42041 -0.63978,4.966886 -3.24686,7.811705 -4.38213,4.781729 -9.77362,5.597564 -14.73483,2.229658 z m 9.61267,-0.806048 c 0.80502,0 2.56822,-1.104545 3.91822,-2.454545 1.87712,-1.877118 2.45454,-3.510738 2.45454,-6.944237 0,-5.941226 -2.99477,-9.539781 -8.50156,-10.215574 -7.74141,-0.950025 -13.0405,5.334149 -11.0811,13.141028 1.03728,4.132859 6.81909,7.947949 10.41445,6.871912 0.73248,-0.219221 1.99044,-0.398584 2.79545,-0.398584 z m -7.62724,-4.5 c -1.5082,-1.817275 -0.66716,-1.933597 1.98861,-0.27504 1.54779,0.966612 2.21982,0.966612 3.18643,0 1.75292,-1.752919 3.3129,-1.517813 1.82496,0.27504 -0.68469,0.825 -2.25969,1.5 -3.5,1.5 -1.24031,0 -2.81531,-0.675 -3.5,-1.5 z"
       id="path2" />
  </g>
</svg>
