<?xml version="1.0" encoding="UTF-8" standalone="no"?>
<!-- Created with Inkscape (http://www.inkscape.org/) -->

<svg
   version="1.1"
   id="svg1"
   width="681.5"
   height="585.6745"
   viewBox="0 0 681.5 585.6745"
   sodipodi:docname="sportsWhite.svg"
   inkscape:export-filename="sportsWhite.svg"
   inkscape:export-xdpi="96"
   inkscape:export-ydpi="96"
   inkscape:version="1.3.2 (091e20e, 2023-11-25, custom)"
   xmlns:inkscape="http://www.inkscape.org/namespaces/inkscape"
   xmlns:sodipodi="http://sodipodi.sourceforge.net/DTD/sodipodi-0.dtd"
   xmlns="http://www.w3.org/2000/svg"
   xmlns:svg="http://www.w3.org/2000/svg">
  <sodipodi:namedview
     id="namedview1"
     pagecolor="#505050"
     bordercolor="#eeeeee"
     borderopacity="1"
     inkscape:showpageshadow="0"
     inkscape:pageopacity="0"
     inkscape:pagecheckerboard="0"
     inkscape:deskcolor="#505050"
     inkscape:zoom="1.2260742"
     inkscape:cx="340.92554"
     inkscape:cy="341.33334"
     inkscape:window-width="1920"
     inkscape:window-height="1051"
     inkscape:window-x="-9"
     inkscape:window-y="-9"
     inkscape:window-maximized="1"
     inkscape:current-layer="svg1" />
  <defs
     id="defs1" />
  <g
     id="g1"
     transform="translate(-1556.1865,-34.950689)">
    <path
       style="fill:#ffe6d5"
       d="m 1680.7984,619.95618 c -6.0667,-1.09178 -11.379,-5.21337 -14.3029,-11.09715 -1.8788,-3.78053 -2.1994,-6.13876 -2.25,-16.54819 l -0.059,-12.13938 -10.75,-0.41191 c -9.3499,-0.35826 -11.4555,-0.77657 -16.1664,-3.21177 -7.4106,-3.83072 -15.4419,-12.11605 -18.6631,-19.25325 -2.0759,-4.59962 -2.7743,-8.08056 -3.2791,-16.34432 l -0.6414,-10.5 -10,-0.59472 c -12.1102,-0.72021 -16.7493,-1.94202 -24.4008,-6.42641 -6.4444,-3.77698 -15.1224,-12.64384 -18.1145,-18.50868 -2.6223,-5.14027 -5.9847,-17.60662 -5.9847,-22.18893 0,-5.28538 3.6062,-17.81955 6.7604,-23.49703 3.3281,-5.99041 11.2913,-14.06179 17.4081,-17.64441 10.2811,-6.0217 15.0366,-6.63982 51.0838,-6.63982 h 32.7587 l -0.2555,-86.75 -0.2555,-86.75 -35.5,-0.50909 -35.5,-0.50909 -7,-2.99091 c -8.0123,-3.42339 -19.741,-14.04854 -23.3343,-21.13864 -2.9753,-5.87086 -6.1697,-18.00193 -6.1438,-23.33217 0.026,-5.3444 2.9826,-12.417 5.8273,-13.93941 3.7337,-1.99821 8.1043,-1.28103 11.2277,1.84239 2.7253,2.72533 2.9231,3.44474 2.9231,10.63398 0,4.241 0.5349,9.49644 1.1888,11.67876 1.6344,5.4552 9.196,13.56863 15.2909,16.40685 l 5.0203,2.3378 102.101,0.01 102.1011,0.01 4.8989,-2.58144 c 6.9515,-3.66302 10.8211,-7.73954 13.9366,-14.68194 2.3175,-5.16393 2.641,-6.99249 2.2358,-12.63708 -0.8545,-11.90303 -7.9942,-21.30195 -19.0067,-25.02091 -6.0674,-2.04901 -7.552,-2.07855 -104.2109,-2.07305 -66.6286,0.004 -99.2922,0.34889 -101.9135,1.07673 -4.7636,1.3227 -8.8109,-0.10597 -11.6683,-4.11874 -2.371,-3.32975 -2.4619,-5.11944 -0.4571,-8.9963 2.4061,-4.65299 6.573,-6.1646 18.5593,-6.73273 l 10.6737,-0.50591 0.452,-10.11431 c 0.3955,-8.8518 0.8632,-10.97537 3.7467,-17.01238 7.1853,-15.04326 20.0943,-22.60194 38.6006,-22.60194 h 6.4508 l 0.022,-11.75 c 0.025,-13.353636 1.5559,-18.31939 7.1026,-23.037567 5.3565,-4.556356 8.0904,-5.055064 28.1575,-5.136347 20.0568,-0.08124 23.5551,0.5586 28.5493,5.22165 4.7256,4.412356 5.6182,7.485538 6.1575,21.202264 l 0.5111,13 9,0.5797 c 12.9638,0.83502 19.9195,3.46193 27.3455,10.32735 8.23,7.60886 13.1545,19.84251 13.1545,32.67924 v 6.62649 l 10.25,0.55692 c 7.3711,0.40051 12.0225,1.23406 16.5606,2.96775 31.9989,12.22445 41.2501,51.84011 18.0371,77.23884 -3.6951,4.04301 -7.355,6.66969 -13.6215,9.77606 l -8.5688,4.24765 -36.0787,0.5 -36.0787,0.5 v 86.5 86.5 l 34.5,0.5258 c 29.6948,0.45255 35.2661,0.77858 40,2.34079 3.025,0.99824 5.9275,2.22414 6.45,2.7242 0.5225,0.50007 1.5926,0.90921 2.3779,0.90921 1.0783,0 41.6216,-23.72894 51.1721,-29.94967 1.3135,-0.85555 1.5622,-14.82307 2,-112.34186 l 0.5,-111.36483 2.7789,-3.64295 c 5.0476,-6.61709 8.9538,-8.839 17.4711,-9.9378 10.466,-1.3502 17.3664,-4.15618 22.6351,-9.20428 7.5377,-7.22215 8.9243,-11.04983 9.5613,-26.39332 l 0.5536,-13.33471 3.2658,-2.91529 c 3.8494,-3.43626 7.3208,-3.70188 11.3049,-0.86499 3.9801,2.83409 5.3181,8.41354 4.5272,18.8782 -0.9079,12.01312 -2.983,19.91527 -7.0537,26.86083 -8.4694,14.45087 -22.2028,23.50326 -37.7685,24.89515 -10.1278,0.90563 -9.8663,0.2232 -9.5464,24.91718 l 0.2707,20.89834 9.0572,4.5 c 4.9815,2.475 14.2065,6.94588 20.5,9.93528 6.2936,2.9894 18.6428,8.89243 27.4428,13.11785 33.9177,16.28592 40.3133,19.35066 50,23.95958 5.5,2.61688 17.2,8.22938 26,12.47221 26.0904,12.57922 30.948,14.82479 32,14.79286 0.9344,-0.0283 5.2108,-2.03246 39,-18.27716 7.15,-3.43748 17.95,-8.6214 24,-11.51983 6.05,-2.89843 18.2,-8.74538 27,-12.99322 8.8,-4.24784 20.05,-9.64444 25,-11.99245 12.3278,-5.84761 40.0627,-19.17552 45.25,-21.74468 l 4.25,-2.10495 v -21.7003 c 0,-16.16733 -0.3187,-21.95187 -1.25,-22.68699 -0.6875,-0.54268 -4.5256,-1.2477 -8.5292,-1.56671 -18.5379,-1.47713 -35.1613,-15.58217 -42.064,-35.69149 -1.2849,-3.74311 -1.5987,-12.23703 -1.8661,-50.5 -0.1767,-25.299991 -0.5507,-47.02307 -0.831,-48.273498 -0.5088,-2.270254 -0.5342,-2.273116 -17.7346,-2 l -17.2251,0.273507 -0.5993,31.5 c -0.5413,28.446791 -0.8144,32.253731 -2.8179,39.276341 -2.8962,10.15171 -5.4711,15.88551 -10.4289,23.22365 -11.0771,16.39518 -26.5027,26.91794 -46.1884,31.50805 -21.1469,4.93081 -43.7327,-0.51912 -61.6693,-14.88074 -8.0745,-6.46513 -9.4683,-7.97856 -15.3375,-16.65381 -5.2004,-7.68658 -7.9291,-13.9971 -10.4383,-24.14011 -1.8005,-7.27775 -2.0204,-11.4276 -2.0204,-38.12755 0,-24.285344 -0.262,-30.178369 -1.383,-31.108719 -0.9481,-0.786903 -6.5289,-1.061209 -17.75,-0.872445 l -16.367,0.275333 -0.543,17.5 c -0.5797,18.682535 -1.3465,21.945175 -5.6143,23.889725 -3.2657,1.48797 -5.8849,1.39835 -9.1976,-0.31473 -4.5282,-2.3416 -5.1451,-5.1693 -5.1451,-23.584536 0,-19.935742 1.3915,-25.401065 7.9832,-31.3563 5.9371,-5.363771 11.7126,-6.634159 30.1608,-6.634159 18.4472,0 23.9352,1.42443 30.1979,7.838011 6.1298,6.277527 6.6581,9.569741 6.6581,41.489006 0,16.488794 0.4694,30.704654 1.1413,34.562654 2.3322,13.39241 10.6578,26.36126 22.0518,34.35011 8.184,5.73813 14.5148,8.30339 24.0046,9.7267 23.6023,3.53995 46.7541,-8.78003 57.2528,-30.46649 5.5864,-11.53938 6.5488,-18.93258 6.5551,-50.356956 0,-15.786688 0.4451,-29.225435 1.0303,-31.332395 0.5635,-2.029147 2.9235,-5.639124 5.2444,-8.02217 6.3215,-6.490918 11.4289,-7.78847 30.6564,-7.78847 21.5867,0 28.2223,2.348138 33.9111,12 l 2.6522,4.5 0.5,48.999991 c 0.4997,48.96695 0.5016,49.00356 2.8818,54.27012 3.0172,6.67606 11.0598,14.14741 17.6847,16.42875 2.7135,0.93438 7.9645,1.9986 11.669,2.36494 8.1711,0.80805 14.3501,4.34175 18.465,10.55982 l 2.7995,4.23053 v 144.57292 144.57292 l -3.6799,7.70625 c -4.2031,8.80192 -9.8424,14.96054 -17.837,19.4798 -5.6405,3.18846 -17.2041,6.31395 -23.3603,6.31395 h -3.4825 l -0.3544,34.25 -0.3545,34.25 -2.7448,5.84432 c -3.5188,7.49236 -11.9771,15.96563 -19.4183,19.45264 l -5.7683,2.70304 h -191 -191 l -7.3458,-2.37649 c -10.8117,-3.49777 -19.4918,-8.70176 -28.3081,-16.97153 -5.0987,-4.78266 -7.9955,-6.8774 -8.2972,-6 -0.255,0.74141 -0.5953,6.7885 -0.7563,13.43798 -0.2744,11.33862 -0.4644,12.33752 -3.0564,16.07358 -1.52,2.191 -4.6652,5.05233 -6.9892,6.35852 -3.927,2.20708 -5.4276,2.39216 -21.2363,2.61924 -9.3559,0.13438 -19.2103,-0.15151 -21.8987,-0.63533 z m 34.1719,-29.25597 0.2838,-10.75 h -15.4268 c -13.1448,0 -15.5167,0.234 -16.0339,1.58179 -0.7936,2.06814 -0.786,16.78812 0.01,18.86184 0.5356,1.39566 2.6087,1.57096 15.75,1.33179 l 15.1333,-0.27542 z m 443.7575,-3.62966 c 4.8942,-2.22313 9.0256,-6.9152 10.4916,-11.9154 0.5974,-2.03772 0.9469,-8.42994 0.7766,-14.20494 l -0.3096,-10.5 -212.9477,-0.25231 c -117.1212,-0.13877 -213.3021,0.10218 -213.7354,0.53545 -1.0824,1.08242 2.6569,10.59173 6.1767,15.70754 3.7796,5.49346 13.1889,14.04797 18.3885,16.71805 2.2649,1.16303 7.0429,2.90124 10.6179,3.86267 6.0728,1.63317 18.6605,1.75256 191.5,1.81638 177.4289,0.0655 185.1654,-0.007 189.0414,-1.76744 z m -434.916,-26.14565 c 0.7004,-0.70043 0.6119,-2.99774 -0.2792,-7.25 -1.5651,-7.46846 -1.728,-21.29718 -0.3391,-28.79103 2.6831,-14.47656 13.4649,-31.97133 24.8576,-40.33429 2.745,-2.01506 14.361,-9.29916 25.8132,-16.18689 11.4522,-6.88773 20.9763,-12.96085 21.1648,-13.49582 0.221,-0.62721 -34.9408,-0.87393 -99,-0.69467 -110.427,0.30903 -101.9939,-0.23765 -110.5044,7.16351 -6.2613,5.44517 -9.3432,12.41222 -9.3163,21.06085 0.035,11.24223 5.5921,20.53697 15.478,25.88839 3.9101,2.11657 5.1172,2.17651 53.6707,2.66526 l 49.6707,0.5 2.4778,2.32898 c 1.3628,1.28094 2.7116,3.53094 2.9973,5 0.6048,3.11034 -1.7263,8.64803 -4.1437,9.84367 -0.92,0.45505 -15.1728,1.05235 -31.6728,1.32735 l -30,0.5 -0.299,6.89871 c -0.5554,12.80976 5.0325,20.92341 16.299,23.66623 4.8331,1.1766 71.9413,1.09378 73.1254,-0.0903 z m 138.3746,-30.57966 c 0,-0.64057 -2.6126,-4.60167 -11.7278,-17.78114 -13.2527,-19.16187 -14.47,-20.68539 -16.1329,-20.19133 -8.4913,2.52274 -11.5221,2.81094 -16.9742,1.61406 -7.5629,-1.66021 -14.3784,-5.45956 -19.2241,-10.71644 -2.1902,-2.3761 -4.224,-4.32018 -4.5196,-4.32018 -0.2956,0 -7.8239,4.36962 -16.7294,9.71026 -16.4483,9.86396 -23.2797,15.50822 -28.1958,23.29589 -2.9987,4.75012 -7.6062,17.00683 -6.852,18.22718 0.5545,0.89709 120.3558,1.05805 120.3558,0.1617 z m 48,-0.5256 c 0,-0.62181 -1.5493,-3.28706 -3.4428,-5.92277 -5.2804,-7.34989 -21.9071,-31.23253 -30.7642,-44.18983 -2.9111,-4.25874 -5.6105,-7.74624 -5.9986,-7.75 -0.388,-0.004 -2.2423,1.00567 -4.1206,2.24317 -1.8782,1.2375 -5.5408,3.50212 -8.1389,5.03248 -5.2665,3.10207 -5.2819,3.42615 -0.4747,9.96835 1.7173,2.33705 6.7938,9.52583 11.2811,15.97508 4.4873,6.44925 10.3654,14.88675 13.0624,18.75 l 4.9037,7.02409 h 11.8463 c 8.143,0 11.8463,-0.35343 11.8463,-1.13057 z m 47.6674,-0.29392 c -0.3007,-0.78347 -11.0003,-16.42097 -23.777,-34.75 -12.7767,-18.32903 -24.5278,-35.22625 -26.1136,-37.54938 -1.5857,-2.32312 -3.2921,-4.47656 -3.7918,-4.78541 -1.0832,-0.66945 -15.6875,7.50333 -16.3719,9.16192 -0.2616,0.63394 2.531,5.45274 6.2057,10.70844 3.6747,5.25569 12.5312,17.98088 19.6812,28.2782 7.15,10.29731 14.9116,21.34101 17.248,24.54156 l 4.2479,5.81916 h 11.6091 c 9.6348,0 11.516,-0.24224 11.0624,-1.42449 z m 48.3326,0.39046 c 0,-1.04965 -5.0346,-8.60087 -15.9789,-23.96597 -3.33,-4.675 -7.0334,-10.40593 -8.2299,-12.7354 -2.099,-4.08642 -2.1156,-4.36097 -0.4732,-7.80528 1.1072,-2.32165 2.9226,-4.07972 5.1922,-5.02802 5.6289,-2.35188 8.9704,-0.30208 15.774,9.67612 3.1473,4.61592 10.8076,15.59258 17.023,24.39258 l 11.3006,16 h 69.4461 69.4461 l 0.2574,-64.3391 c 0.2449,-61.21268 0.1656,-64.54657 -1.6312,-68.60847 -2.9906,-6.76095 -7.7814,-9.7665 -16.4548,-10.32312 -6.6713,-0.42814 -7.4789,-0.26216 -10.3083,2.11867 -1.8788,1.58089 -3.9226,4.92168 -5.2675,8.61001 -4.9417,13.55306 -18.9909,29.78655 -32.898,38.01279 -14.0578,8.31535 -32.2645,12.73474 -47.1976,11.45646 -30.6267,-2.62167 -55.3962,-20.30519 -68.5329,-48.92724 -4.6814,-10.19972 -5.8687,-11 -16.3195,-11 h -8.6476 l -0.5636,9.58615 c -0.5607,9.5361 -1.1031,11.24755 -6.5068,20.53207 l -1.8149,3.11822 5.2495,7.38178 c 17.4163,24.49061 17.1358,24.02619 17.1358,28.37128 0,6.83637 -5.9352,10.81789 -12.2148,8.19409 -3.2709,-1.36666 -5.6391,-4.34838 -20.7852,-26.16953 -2.475,-3.56578 -5.0503,-6.49016 -5.723,-6.49864 -1.6376,-0.0206 -16.277,9.05411 -16.277,10.08988 0,0.82087 3.0782,5.37329 18.5231,27.3947 4.6289,6.6 9.9767,14.25 11.8838,17 1.9071,2.75 7.0736,10.175 11.481,16.5 4.4074,6.325 10.5657,15.2125 13.6851,19.75 l 5.6716,8.25 h 11.8777 c 7.5124,0 11.8777,-0.38002 11.8777,-1.03403 z m 201.5929,-42.51771 c 2.9939,-1.85098 6.0141,-4.87702 7.8807,-7.89597 l 3.0264,-4.89484 0.2633,-107.32872 c 0.2198,-89.59344 0.04,-107.32873 -1.0874,-107.32873 -0.7429,0 -4.9114,1.77033 -9.2633,3.93406 -4.3519,2.16373 -13.7626,6.71767 -20.9126,10.11985 -25.4205,12.09587 -54.9478,26.23838 -73.5,35.20388 -7.425,3.5882 -19.35,9.32185 -26.5,12.74145 -7.15,3.41961 -16.825,8.05441 -21.5,10.29956 -5.2934,2.54215 -9.8203,4.05007 -12,3.99722 -2.2275,-0.054 -10.0442,-3.25487 -21.5,-8.804 -9.9,-4.79552 -22.95,-11.08197 -29,-13.96989 -11.9989,-5.72758 -27.5312,-13.1828 -48.5,-23.27911 -13.2293,-6.36982 -26.204,-12.59439 -50.7817,-24.36241 -6.755,-3.23433 -12.9425,-5.88061 -13.75,-5.88061 -1.2768,0 -1.4683,8.99681 -1.4683,69 0,47.23297 0.3291,69 1.0431,69 0.5737,0 11.1748,-6.08753 23.558,-13.52784 27.4908,-16.51754 28.4469,-16.81459 52.3989,-16.28017 14.1503,0.31572 17.1583,0.66824 21.1224,2.47541 7.8135,3.56202 12.4287,8.61334 17.4044,19.04904 5.4134,11.35359 7.9654,14.99188 15.7535,22.45843 7.3563,7.05264 19.2835,13.103 30.0767,15.25706 9.835,1.96285 12.5161,1.95855 22.2861,-0.0357 21.6414,-4.41739 36.0014,-15.94696 45.8913,-36.84591 2.8761,-6.07769 6.6593,-12.48571 8.4072,-14.24004 4.6666,-4.68398 10.9298,-7.33205 18.9277,-8.00256 18.267,-1.53144 32.629,6.25652 40.0032,21.69225 l 2.6275,5.5 0.2956,47.86028 0.2956,47.86027 6.8238,-0.38558 c 5.4153,-0.30599 7.8257,-1.00503 11.6779,-3.38671 z m -325.0672,-45.36954 c 61.5265,-36.84503 60.4743,-36.04075 60.4743,-46.22739 0,-3.21823 -0.3375,-5.84252 -0.75,-5.83175 -0.4125,0.0108 -3.675,1.77505 -7.25,3.92063 -3.575,2.14558 -10.775,6.43402 -16,9.52987 -5.225,3.09585 -14.225,8.49822 -20,12.00527 -5.775,3.50705 -14.775,8.90692 -20,11.99972 -5.225,3.09281 -14.225,8.48256 -20,11.97723 -10.2244,6.18721 -20.1502,12.11432 -38.4535,22.96216 -4.9244,2.91858 -9.1058,5.76341 -9.2919,6.32184 -0.1861,0.55844 1.065,2.19622 2.7802,3.63952 2.4908,2.09583 4.1654,2.62418 8.3176,2.62418 5.0467,0 6.8085,-0.9639 60.1733,-32.92128 z m -167.7701,-93.82872 -0.2556,-86.75 h -15.5 -15.5 l -0.2581,85.5 c -0.142,47.025 -0.044,86.0625 0.2186,86.75 0.3531,0.92591 4.5051,1.25 16.0137,1.25 h 15.5369 z m 49.2444,-190.28211 c 0,-4.48386 -0.5968,-9.46055 -1.351,-11.26563 -1.7701,-4.23634 -7.657,-9.33101 -12.3824,-10.716 -2.5899,-0.75908 -19.2534,-1.00747 -53.3409,-0.79511 l -49.5743,0.30885 -4.1612,2.75458 c -6.2024,4.10582 -9.1902,10.67696 -9.1902,20.21218 v 7.53324 h 65 65 z m -49,-52.49328 V 94.899434 l -15.75,0.27539 -15.75,0.27539 -0.2914,8.920856 c -0.1603,4.90647 -0.062,9.51897 0.2186,10.25 0.394,1.02658 4.0456,1.32914 16.0414,1.32914 h 15.5314 z m 318.4068,178.55222 c -1.1513,-0.46552 -2.9045,-2.55597 -3.896,-4.64544 -1.7463,-3.67996 -1.7434,-3.90741 0.093,-7.25628 1.9775,-3.60573 3.0737,-4.48043 7.646,-6.10095 l 2.75,-0.97465 v -17.02475 c 0,-16.49558 -0.064,-17.02476 -2.0496,-17.02476 -2.8912,0 -7.7013,-2.66618 -8.9207,-4.9446 -0.5663,-1.05815 -1.0154,-3.416 -0.9979,-5.23965 0.06,-6.23644 3.9097,-8.81647 13.1525,-8.81419 7.7269,0.002 12.481,2.17909 15.2817,6.99844 1.844,3.17296 2.0639,5.53237 2.3539,25.25 0.2065,14.03403 0.685,21.75 1.3489,21.75 0.5659,0 2.5382,0.71616 4.3827,1.59147 5.9871,2.84107 6.9221,11.31767 1.7013,15.42435 -2.2553,1.77403 -4.0175,1.97747 -16.6376,1.9208 -7.7634,-0.0349 -15.0571,-0.44427 -16.2084,-0.90979 z"
       id="path2" />
  </g>
</svg>
