<?xml version="1.0" encoding="UTF-8" standalone="no"?>
<!-- Created with Inkscape (http://www.inkscape.org/) -->

<svg
   version="1.1"
   id="svg1"
   width="81"
   height="93"
   viewBox="0 0 81 93"
   xmlns="http://www.w3.org/2000/svg"
   xmlns:svg="http://www.w3.org/2000/svg">
  <defs
     id="defs1" />
  <g
     id="g1"
     transform="translate(-0.05479689,-0.94280903)"
     style="fill:#ffe6d5">
    <path
       style="fill:#ffe6d5"
       d="M 21.999998,93.067105 C 0.43500803,85.970972 -6.959462,61.236433 7.632258,45.006935 c 5.99865,-6.671941 11.10936,-9.237576 19.61774,-9.848329 l 6.75,-0.484532 v 8.495695 c 0,8.452901 -0.0122,8.493361 -2.42512,8.032104 -3.85828,-0.737557 -9.38453,1.62482 -12.08592,5.166522 -4.61723,6.053509 -2.70542,15.859755 3.74201,19.19385 6.71561,3.472776 13.90505,1.485514 17.81304,-4.923771 1.828,-2.99801 1.94875,-5.252215 1.95226,-36.445665 l 0.004,-33.24999997 h 8.03139 c 5.56942,0 8.14002,0.38317827 8.38579,1.24999997 0.19493,0.6875001 0.90248,3.275 1.57234,5.75 1.69089,6.24751 8.13995,12.335773 14.90279,14.069037 l 5.10769,1.309062 v 7.81095 c 0,5.710958 -0.34679,7.810951 -1.2899,7.810951 -2.92175,0 -12.66744,-3.042282 -15.95008,-4.97909 l -3.52179,-2.077906 -0.3981,19.358409 -0.3981,19.35841 -3.25592,6.613704 c -3.28749,6.677848 -7.30829,10.716957 -14.18611,14.250706 -3.85935,1.982898 -15.90736,2.946777 -20,1.600063 z m 17.28531,-3.705844 c 5.73704,-1.954804 12.21563,-8.094467 15.04943,-14.262122 1.92197,-4.183083 2.19154,-6.932857 2.65234,-27.055303 l 0.51292,-22.398973 3.16816,2.669 c 3.28926,2.771024 9.82545,5.920985 14.58184,7.027371 2.73514,0.63622 2.75,0.610963 2.75,-4.671969 v -5.311647 l -4.7427,-1.268481 C 66.980588,22.410375 59.500928,14.844419 57.788508,8.4418886 l -1.20332,-4.4990795 h -5.29259 -5.2926 V 35.474927 c 0,34.515615 -0.14367,35.513124 -5.89418,40.921593 -2.64047,2.483415 -4.13289,3.014836 -9.37316,3.337604 -5.27786,0.325083 -6.75327,0.02579 -9.63105,-1.953711 -9.52748,-6.553541 -9.45257,-20.993188 0.13925,-26.843836 1.79253,-1.093373 4.72164,-2.26434 6.50914,-2.60215 3.13971,-0.593357 3.25,-0.780099 3.25,-5.502909 v -4.888709 h -3.87787 c -11.96064,0 -24.09616,12.836882 -24.10678,25.5 -0.002,2.75 0.46131,6.676134 1.03026,8.724744 1.15727,4.166972 6.1239,11.103887 10.01222,13.984117 6.37661,4.723407 16.86751,6.058121 25.22748,3.209591 z"
       id="path2" />
  </g>
</svg>
