<?xml version="1.0" encoding="UTF-8" standalone="no"?>
<!-- Created with Inkscape (http://www.inkscape.org/) -->

<svg
   version="1.1"
   id="svg1"
   width="640"
   height="576"
   viewBox="0 0 640 576"
   xmlns="http://www.w3.org/2000/svg"
   xmlns:svg="http://www.w3.org/2000/svg">
  <defs
     id="defs1" />
  <g
     id="g1"
     transform="translate(-1409.3836,2.7502513)">
    <path
       style="fill:#ffe6d5"
       d="m 1455.3764,571.36168 c -3.025,-0.90706 -6.85,-2.39177 -8.5,-3.29936 -4.6156,-2.5388 -10.1579,-8.78556 -12.7007,-14.31501 l -2.2993,-5 -0.2848,-78.28727 -0.2847,-78.28727 -2.7153,-1.16881 c -8.133,-3.50093 -14.2499,-10.98237 -17.3722,-21.24753 -1.7263,-5.67558 -1.8282,-12.6236 -1.8354,-125.17835 -0.01,-105.96918 0.1697,-119.87048 1.5929,-125.5 3.443,-13.61817 11.5444,-21.423838 25.2148,-24.294574 6.1679,-1.295226 18.033,-1.536194 75.641,-1.536194 h 68.3257 l 0.4317,-25.75 c 0.4591,-27.376754 0.9683,-30.557339 6.651,-41.540901 2.2607,-4.369471 8.5112,-12.290598 12.0014,-15.209099 5.0927,-4.2585428 15.2614,-9.3785824 20.8182,-10.48220267 3.1986,-0.6352632 7.4429,-1.57414803 9.4317,-2.08641073 4.8087,-1.2385999 194.9592,-1.2385999 199.768,0 1.9888,0.5122627 6.233,1.45114753 9.4317,2.08641073 5.5568,1.10362027 15.7255,6.22365987 20.8182,10.48220267 3.4902,2.918501 9.7407,10.839628 12.0013,15.209099 5.6827,10.983562 6.192,14.164147 6.651,41.540901 l 0.4318,25.75 h 68.3256 c 57.6081,0 69.4731,0.240968 75.641,1.536194 13.6705,2.870736 21.7718,10.676404 25.2148,24.294574 1.4233,5.62952 1.5998,19.53082 1.593,125.5 -0.01,112.55475 -0.1091,119.50277 -1.8354,125.17835 -3.1223,10.26516 -9.2392,17.7466 -17.3722,21.24753 l -2.7153,1.16881 -0.2847,78.28727 -0.2848,78.28727 -2.3081,5.09882 c -2.4295,5.36687 -8.6431,12.04516 -13.6919,14.71566 -9.3315,4.93584 5.59,4.6943 -282.1539,4.56731 -245.7535,-0.10846 -268.2998,-0.25424 -273.3461,-1.76742 z m 545.8102,-20.46723 c 1.2707,-0.7051 3.1802,-2.60165 4.2435,-4.21457 1.8664,-2.8313 1.9334,-5.45996 1.9397,-76.12355 0,-43.47281 -0.3669,-73.42182 -0.9133,-73.7595 -0.8571,-0.52975 -13.1393,0.93212 -46.0801,5.48464 -7.425,1.02615 -20.1384,2.78092 -28.2521,3.89948 -8.1136,1.11856 -21.277,2.93375 -29.252,4.03375 -7.975,1.1 -21.025,2.9 -29,4 -7.975,1.1 -20.9116,2.88521 -28.748,3.96712 -38.0727,5.25648 -46.2078,6.36536 -58.5224,7.97713 -7.301,0.95558 -13.6749,2.15387 -14.1643,2.66289 -0.4893,0.50901 -1.0521,8.80047 -1.2506,18.42547 -0.3412,16.5457 -0.5007,17.75566 -2.9241,22.18831 -3.255,5.95383 -8.7084,11.41654 -14.6982,14.72338 -4.5929,2.53564 -5.0851,2.58831 -24.1883,2.58831 -19.1032,0 -19.5954,-0.0527 -24.1883,-2.58831 -5.9899,-3.30684 -11.4432,-8.76955 -14.6983,-14.72338 -2.4234,-4.43265 -2.5828,-5.64261 -2.924,-22.18831 -0.1985,-9.625 -0.7613,-17.91646 -1.2506,-18.42547 -0.4894,-0.50902 -6.8633,-1.70731 -14.1643,-2.66289 -7.301,-0.95557 -20.2495,-2.69874 -28.7745,-3.8737 -35.0306,-4.82811 -45.1577,-6.22532 -58.5,-8.07107 -7.7,-1.06521 -20.75,-2.86521 -29,-4 -15.0166,-2.06554 -32.1952,-4.43551 -57.5,-7.93271 -32.9408,-4.55252 -45.223,-6.01439 -46.0802,-5.48464 -0.5463,0.33768 -0.9172,30.28669 -0.9132,73.7595 0.01,70.66359 0.073,73.29225 1.9397,76.12355 1.0633,1.61292 2.9728,3.50947 4.2434,4.21457 1.863,1.03377 54.4917,1.28199 271.8103,1.28199 217.3186,0 269.9473,-0.24822 271.8102,-1.28199 z m -255.85,-85.28268 c 5.9944,-3.541 6.0398,-3.85566 6.0398,-41.86446 0,-37.71741 -0.1611,-38.88549 -5.7123,-41.41479 -3.1224,-1.42263 -29.4531,-1.42263 -32.5754,0 -5.5512,2.5293 -5.7123,3.69738 -5.7123,41.41479 0,37.85394 0.049,38.20182 5.8728,41.81629 3.8261,2.37456 28.0874,2.41098 32.0874,0.0482 z m -57.7982,-70.36446 c 0.3138,-10.31534 0.6416,-12.05632 3.1822,-16.9004 3.576,-6.81835 8.6331,-11.66082 15.6558,-14.99127 5.2762,-2.50222 6.2119,-2.60833 23,-2.60833 16.7881,0 17.7238,0.10611 23,2.60833 7.0272,3.3326 12.084,8.1771 15.6482,14.99127 2.5098,4.79843 2.882,6.73463 3.3383,17.37003 l 0.5135,11.96963 4.7754,-0.29672 c 2.6265,-0.1632 6.1834,-0.70053 7.9043,-1.19407 1.7208,-0.49354 7.8969,-1.3766 13.7246,-1.96237 5.8276,-0.58576 12.6207,-1.49777 15.0957,-2.02668 2.475,-0.52892 9.9,-1.62533 16.5,-2.43647 22.0325,-2.70779 34.9258,-4.46999 43.5,-5.9454 4.675,-0.80444 11.875,-1.74911 16,-2.09924 4.125,-0.35014 9.0914,-1.04246 11.0364,-1.53849 1.945,-0.49604 8.245,-1.37911 14,-1.9624 5.755,-0.58328 12.4886,-1.49232 14.9636,-2.02009 2.475,-0.52777 9.9,-1.62324 16.5,-2.43438 22.0325,-2.70779 34.9258,-4.46999 43.5,-5.9454 4.675,-0.80444 11.875,-1.74691 16,-2.09437 10.7393,-0.9046 18.6868,-3.2696 21.0399,-6.261 1.9227,-2.44431 1.9601,-4.83993 1.9601,-125.45704 V 121.04731 l -3.4,-3.4 -3.4,-3.4 h -292.2 -292.2 l -3.4,3.4 -3.4,3.4 v 122.96514 c 0,120.61711 0.037,123.01273 1.9601,125.45704 2.353,2.9914 10.3005,5.3564 21.0399,6.261 4.125,0.34746 11.325,1.28993 16,2.09437 8.5742,1.47541 21.4674,3.23761 43.5,5.9454 6.6,0.81114 14.025,1.90661 16.5,2.43438 2.475,0.52777 9.2086,1.43681 14.9636,2.02009 5.7549,0.58329 12.0549,1.46636 14,1.9624 1.945,0.49603 6.9114,1.18835 11.0364,1.53849 4.125,0.35013 11.325,1.2948 16,2.09924 8.5742,1.47541 21.4674,3.23761 43.5,5.9454 6.6,0.81114 14.025,1.90959 16.5,2.441 2.475,0.53141 7.65,1.23305 11.5,1.5592 3.85,0.32615 10.6,1.23406 15,2.01756 10.0264,1.78542 13.8201,2.17172 14.6561,1.49243 0.3608,-0.29322 0.8135,-5.70814 1.0059,-12.03314 z m -63.9785,-325.405411 0.3165,-23.405413 3,-2.844587 3,-2.844587 h 99.5 99.5 l 3,2.844587 3,2.844587 0.3165,23.405413 0.3165,23.405413 h 10.9931 10.9932 l -0.3097,-26.75 -0.3096,-26.75 -3.6741,-6.005794 c -3.6054,-5.893681 -6.8469,-8.934509 -13.8259,-12.970266 -3.454,-1.997341 -4.8996,-2.02394 -110,-2.02394 -105.1004,0 -106.546,0.0266 -110,2.02394 -6.9791,4.035757 -10.2205,7.076585 -13.826,12.970266 l -3.674,6.005794 -0.3097,26.75 -0.3096,26.75 h 10.9931 10.9932 z m 191.8165,7.405413 v -16 h -86 -86 v 16 16 h 86 86 z"
       id="path2" />
  </g>
</svg>
