<?xml version="1.0" encoding="UTF-8" standalone="no"?>
<!-- Created with Inkscape (http://www.inkscape.org/) -->

<svg
   version="1.1"
   id="svg1"
   width="116"
   height="96"
   viewBox="0 0 116 96"
   xmlns="http://www.w3.org/2000/svg"
   xmlns:svg="http://www.w3.org/2000/svg">
  <defs
     id="defs1" />
  <g
     id="g1"
     transform="translate(-201.07229,4.2149584)"
     style="fill:#ffe6d5">
    <path
       style="fill:#ffe6d5"
       d="m 207.42531,89.960707 c -4.99512,-2.72418 -6.36754,-7.30616 -6.3529,-21.20993 0.0102,-9.69769 0.42729,-12.77898 2.66128,-19.66082 4.26697,-13.14445 12.22999,-22.62569 23.00617,-27.39251 6.39485,-2.82875 11.87031,-2.66289 18.90236,0.57258 3.18452,1.46521 6.39419,2.43217 7.13262,2.14881 1.20697,-0.46315 3.28463,-8.27361 5.0897,-19.1335004 1.2081,-7.26829 5.38735,-12.74585 5.55794,-7.28456 0.0646,2.06731 0.13177,2.093 0.8275,0.31638 1.5332,-3.91518 1.94255,0.21604 0.44597,4.5008 -2.63126,7.5334204 -0.43142,20.9328204 3.43663,20.9328204 0.71461,0 3.19387,-0.9708 5.50946,-2.15735 13.01472,-6.66894 31.25636,4.39386 38.93993,23.61546 2.89352,7.23857 3.25087,9.28162 3.57741,20.45257 0.22515,7.70249 -0.0906,14.02998 -0.83233,16.67914 -3.62655,12.95278 -17.14226,11.70016 -30.08167,-2.78793 -3.36396,-3.76658 -7.97859,-7.92748 -10.25474,-9.24644 -6.14432,-3.56046 -14.99763,-5.83951 -19.63856,-5.05543 -5.15978,0.87174 -15.29233,7.48445 -23.24063,15.1673 -10.23622,9.89437 -18.31494,13.01726 -24.68614,9.54261 z m 13.5259,-4.66608 c 0.84911,-0.84911 1.8492,-1.54402 2.22242,-1.54423 0.37321,-2.1e-4 3.37857,-2.5217 6.67857,-5.60331 8.37852,-7.82404 15.51305,-13.12209 18.75945,-13.93061 1.51769,-0.37799 3.00675,-1.0874 3.30901,-1.57648 0.75715,-1.22509 13.16691,-1.12641 13.93154,0.11078 0.33992,0.55 1.32969,1 2.19949,1 3.7944,0 11.29828,5.15913 19.89424,13.67784 8.16964,8.09622 9.78831,9.25691 13.7349,9.84874 9.58239,1.43696 11.67137,-1.82471 11.67137,-18.2234 0,-16.55084 -3.51756,-26.47365 -12.63432,-35.64059 -6.13204,-6.16579 -6.77657,-6.65889 -11.64961,-8.91259 -5.47028,-2.52991 -9.67307,-2.1708 -16.86345,1.4409 -5.35072,2.68765 -7.45662,3.18837 -13.35262,3.17483 -5.79126,-0.0133 -8.13912,-0.56428 -13.59684,-3.1909 -7.48865,-3.60402 -11.19813,-3.92543 -16.61923,-1.43999 -4.8025,2.20183 -11.80094,7.38142 -14.34719,10.61846 -3.38813,4.30731 -7.66422,13.90351 -8.97742,20.1467 -2.50428,11.90584 -0.95939,29.15973 2.82031,31.49814 2.32193,1.43651 10.90193,0.46316 12.81938,-1.45429 z m -3.40919,-19.56948 c -9.73965,-5.9381 -7.16145,-22.02001 4.01255,-25.02886 11.5451,-3.10877 21.13248,8.13732 16.46347,19.31183 -3.0217,7.23194 -13.28923,10.09869 -20.47602,5.71703 z m 14.60481,-2.64563 c 3.06632,-1.91536 4.47982,-5.90994 3.91647,-11.068 -0.94615,-8.66293 -11.4134,-12.12452 -18.63293,-6.16202 -3.52529,2.91148 -4.14247,11.30211 -1.11355,15.13899 3.60853,4.57111 10.41936,5.47077 15.83001,2.09103 z m -9.79463,-1.98561 c -2.60326,-0.99478 -4,-3.6003 -4,-7.46168 0,-2.8453 0.62833,-4.23053 2.63486,-5.80887 1.44917,-1.13992 3.41348,-2.07258 4.36514,-2.07258 0.95165,0 2.91597,0.93266 4.36514,2.07258 2.00653,1.57834 2.63486,2.96357 2.63486,5.80887 0,2.05496 -0.5625,4.49124 -1.25,5.41395 -1.35028,1.81225 -6.32164,2.97568 -8.75,2.04773 z m 7.16329,-4.80216 c 2.28567,-5.01651 -3.77743,-9.78397 -7.59186,-5.96954 -3.2242,3.2242 -1.07221,8.42857 3.48519,8.42857 2.20165,0 3.28063,-0.64608 4.10667,-2.45903 z m 59.08671,10.79675 c -1.76775,-0.7133 -1.55344,-5.89142 0.32143,-7.76629 2.10675,-2.10675 4.02085,-1.97914 6.42857,0.42857 2.26853,2.26853 2.43543,3.31787 0.96482,6.06575 -0.99538,1.85988 -4.73133,2.47584 -7.71482,1.27197 z m 5.41417,-4.7705 c -0.85141,-2.21873 -3.66417,-1.95048 -3.66417,0.34945 0,2.10634 1.99138,3.29874 3.38278,2.02555 0.48553,-0.44428 0.61216,-1.51303 0.28139,-2.375 z m -16.23541,-6.99504 c -1.39047,-5.54006 2.77925,-8.97635 7.29882,-6.01502 4.30896,2.82334 2.14997,8.44284 -3.24371,8.44284 -2.81418,0 -3.55746,-0.445 -4.05511,-2.42782 z m 6.57124,-2.12015 c 0,-1.87889 -1.97304,-2.87898 -3.21992,-1.63211 -1.49332,1.49333 -0.17968,4.27065 1.68207,3.55624 0.84582,-0.32458 1.53785,-1.19043 1.53785,-1.92413 z m 14.2,3.34797 c -1.73846,-1.73845 -1.48701,-6.47588 0.38179,-7.19301 5.46559,-2.09734 9.95211,1.65837 7.48591,6.26652 -1.27184,2.37645 -5.8756,2.91859 -7.8677,0.92649 z m 5.8,-3.3 c 0,-1.64632 -2.73917,-2.73105 -3.55659,-1.40844 -0.34135,0.55232 -0.37279,1.65008 -0.0699,2.43947 0.65004,1.69396 3.62647,0.84774 3.62647,-1.03103 z m -15.25,-6.5801 c -2.5975,-1.5129 -2.18823,-5.58665 0.75501,-7.51513 2.06254,-1.35143 2.77871,-1.41419 4.05459,-0.3553 3.15835,2.6212 3.61376,4.77718 1.46332,6.92762 -2.24444,2.24443 -3.67025,2.45873 -6.27292,0.94281 z m 4.51443,-2.51766 c 0.97315,-0.97315 -0.36299,-3.40224 -1.87142,-3.40224 -0.76616,0 -1.39301,0.9 -1.39301,2 0,1.88259 1.94752,2.71915 3.26443,1.40224 z m -29.4548,-20.15224 c -0.4842,-2.51422 -8.13506,-2.51422 -8.61926,0 -0.28193,1.46395 0.42253,1.75 4.30963,1.75 3.8871,0 4.59156,-0.28605 4.30963,-1.75 z m -2.80963,-6.25 c 0,-0.55 -0.675,-1 -1.5,-1 -0.825,0 -1.5,0.45 -1.5,1 0,0.55 0.675,1 1.5,1 0.825,0 1.5,-0.45 1.5,-1 z M 261.635,5.2507766 c 0.31984,-3.64184 0.19893,-5.21394 -0.30764,-4 -0.45903,1.1 -0.86622,3.66095 -0.90488,5.69099 -0.0386,2.03004 -0.52028,3.9691004 -1.07028,4.3090104 -0.55,0.33992 -1,1.13791 -1,1.77331 0,0.72418 0.51417,0.60887 1.37793,-0.30902 0.75786,-0.80536 1.61506,-4.1642904 1.90487,-7.4642904 z"
       id="path2" />
  </g>
</svg>
