<?xml version="1.0" encoding="UTF-8" standalone="no"?>
<!-- Created with Inkscape (http://www.inkscape.org/) -->

<svg
   version="1.1"
   id="svg1"
   width="82.829803"
   height="100.32271"
   viewBox="0 0 82.829803 100.32271"
   xmlns="http://www.w3.org/2000/svg"
   xmlns:svg="http://www.w3.org/2000/svg">
  <defs
     id="defs1" />
  <g
     id="g1"
     transform="translate(-0.4115445,-0.26774657)"
     style="fill:#ffe6d5">
    <path
       style="fill:#ffe6d5"
       d="m 15.458632,99.575948 c -0.88904,-0.889035 -1.21729,-7.716052 -1.21729,-25.317286 0,-26.074917 -0.0865,-26.5 -5.3952803,-26.5 -7.5076,0 -11.03686,-9.136959 -6.25248,-16.187133 1.66804,-2.457988 2.21618,-4.393322 1.88446,-6.653488 -0.68743,-4.68374 1.48732,-8.873419 6.3384403,-12.211075 2.3603,-1.623927 4.5697,-3.8292862 4.90978,-4.9007983 1.37955,-4.3465698 9.68585,-7.21126015 14.94035,-5.1526523 1.2146,0.4758543 3.40672,0.038526 5.93862,-1.1847525 4.5294,-2.18836716 11.25805,-1.37059095 19.13611,2.3257325 2.2,1.0322229 5.69247,2.3829714 7.76104,3.0016632 8.555,2.558727 11.6205,13.1668684 5.7796,20.0002774 -6.86968,8.037003 -4.32066,18.962226 4.42418,18.962226 9.55642,0 9.53518,-0.04063 9.53518,18.243129 0,17.700984 0.0573,17.597917 -10,17.975385 -7.5,0.281486 -7.5,0.281486 -8,9.281486 l -0.5,9.000008 -24.03271,0.26728 c -17.85258,0.19855 -24.34575,-0.0457 -25.25,-0.950002 z m 47.78271,-10.106623 c 0.59142,-10.396368 0.85753,-10.674043 10.25,-10.69535 6.75,-0.01531 6.75,-0.01531 6.75,-15.015313 0,-15 0,-15 -6.56574,-15 -10.05684,0 -10.43426,-0.399159 -10.43426,-11.035184 v -8.964816 h -23.5 -23.5 v 34.333334 c 0,18.883333 0.30824,34.641568 0.68497,35.018301 0.37673,0.376732 10.83923,0.564232 23.25,0.416666 l 22.56503,-0.268301 z m -38.39301,1.70755 c -1.52726,-3.979966 -0.64592,-53.141015 0.97683,-54.487779 4.27206,-3.54549 8.2729,40.14503 4.92838,53.819566 -0.65201,2.665835 -4.95194,3.1524 -5.90521,0.668213 z m 4.39301,-26.418213 c 0,-23.333333 -3.70206,-26.445382 -2.77989,-27.810596 0.72559,-1.07419 -0.22011,4.477263 -0.22011,27.810596 0,23.333334 0.20371,27 1.5,27 1.2963,0 1.5,-3.666666 1.5,-27 z m 8.66667,27.333334 c -1.61139,-1.611391 -0.73312,-55.093856 0.91512,-55.726345 5.02757,-1.929259 5.41821,0.08103 5.41821,27.882652 0,28.562056 -1.04051,33.136518 -6.33333,27.843693 z m 4.33333,-27.333334 c 0,-23.333333 -0.2037,-27 -1.5,-27 -1.29629,0 -1.5,3.666667 -1.5,27 0,23.333334 0.20371,27 1.5,27 1.2963,0 1.5,-3.666666 1.5,-27 z m 8.60699,26.418213 c -3.28693,-8.565601 -0.0938,-56.30973 3.66939,-54.86565 3.20872,1.2313 2.55393,56.447437 -0.66939,56.447437 -1.31616,0 -2.66616,-0.711804 -3,-1.581787 z m 3.39301,-26.47723 c 0,-17.118034 0.33951,-25.889629 -0.31739,-25.483646 -0.62312,0.385113 -1.68261,9.997492 -1.68261,25.435014 0,21.822702 0.27354,26.107649 1.66667,26.107649 0.18333,0 0.33333,-11.726557 0.33333,-26.059017 z m 14.21611,10.526905 c -2.81065,-3.187505 -1.1679,-22.76516 2.00361,-23.878193 5.21161,-1.829002 6.78028,1.094609 6.78028,12.636721 0,11.94747 -3.83437,16.854631 -8.78389,11.241472 z m 5.58389,-1.667888 c 3.81787,-3.817872 0.61294,-23.047453 -3.3,-19.8 -3.06012,2.539675 -1.74152,21 1.5,21 0.33,0 1.14,-0.54 1.8,-1.2 z m -60.8,-37.8 0.5,-9.5 26.5,-0.26406 c 26.10047,-0.26008 26.52605,-0.297772 28.22777,-2.5 4.15224,-5.373509 -0.71288,-14.6550633 -7.72777,-14.7428631 -1.65,-0.020652 -4.125,-0.9175364 -5.5,-1.993077 -1.375,-1.0755405 -3.53485,-1.9655344 -4.79966,-1.9777641 -1.26481,-0.01223 -3.68349,-0.7378432 -5.37484,-1.6124744 -3.06541,-1.5851846 -9.8255,0.3533955 -9.8255,2.8176425 0,1.1338258 -3.77666,0.942975 -4.5,-0.227404 -2.31696,-3.7489251 -10.83137,-0.2830902 -13.83799,5.6328301 -0.90958,1.789705 -2.67355,3.404234 -4.11445,3.765877 -3.9176103,0.983258 -5.8946503,4.829632 -5.2809603,10.274256 0.47252,4.192149 0.24643,4.86591 -2.37215,7.069305 -5.90977997,4.97275 -2.13939,13.681317 5.6055503,12.947284 1.80697,-0.171257 2.04826,-1.106439 2.5,-9.689552 z"
       id="path2" />
  </g>
</svg>
