<?xml version="1.0" encoding="UTF-8" standalone="no"?>
<!-- Created with Inkscape (http://www.inkscape.org/) -->

<svg
   version="1.1"
   id="svg1"
   width="99"
   height="103"
   viewBox="0 0 99 103"
   xmlns="http://www.w3.org/2000/svg"
   xmlns:svg="http://www.w3.org/2000/svg">
  <defs
     id="defs1" />
  <g
     id="g1"
     transform="translate(-135.19339,65.655304)"
     style="fill:#ffe6d5">
    <path
       style="fill:#ffe6d5"
       d="m 183.66931,30.130079 c 0,-3.758334 -0.25998,-7.093319 -0.57774,-7.411079 -0.31776,-0.317761 -3.5458,0.811175 -7.17343,2.508745 -5.02824,2.352998 -8.42387,3.192324 -14.28861,3.531828 -11.52702,0.667289 -11.86361,-2.130087 -0.92928,-7.723071 6.70267,-3.428467 6.66652,-4.142978 -0.28955,-5.722787 -10.51296,-2.38762 -28.40484,-14.58616477 -24.7274,-16.8589488 2.34321,-1.448181 14.32266,-1.353328 18.74599,0.148429 5.47537,1.85893803 6.35999,1.15997403 3.03775,-2.400214 -1.40606,-1.506763 -3.67455,-4.546175 -5.04109,-6.7542492 -1.36654,-2.208074 -3.21587,-4.621562 -4.10962,-5.363307 -0.89375,-0.741745 -1.4199,-1.680477 -1.16923,-2.086072 0.25067,-0.405595 -0.62292,-2.199526 -1.94132,-3.986514 -1.3184,-1.786988 -2.16331,-3.858278 -1.87759,-4.602867 0.28573,-0.744588 -0.19563,-2.374797 -1.06969,-3.622685 -1.67718,-2.394514 -2.24444,-11.823875 -0.71131,-11.823875 1.96767,0 7.77952,2.963944 9.46602,4.82751 0.99181,1.095939 2.86518,2.259134 4.16305,2.584877 1.29786,0.325744 2.64474,1.490169 2.99305,2.587613 0.34832,1.097444 1.71218,2.266134 3.03082,2.59709 1.31863,0.330956 2.65571,1.415247 2.97129,2.409535 0.31557,0.994288 2.12733,3.762052 4.02612,6.150586 1.8988,2.388534 3.45673,4.905289 3.46207,5.592789 0.005,0.6875 0.42938,1.25 0.94232,1.25 1.68378,0 2.23442,-3.963844 1.04943,-7.554402 -0.88001,-2.666453 -0.8816,-3.861704 -0.007,-4.916092 0.83787,-1.009572 0.87236,-2.420933 0.12528,-5.126619 -0.85407,-3.093197 -0.75279,-3.936868 0.59052,-4.919124 1.26445,-0.924588 1.48437,-2.185359 0.99894,-5.726913 -0.54282,-3.960358 -0.37094,-4.607092 1.34364,-5.055464 1.63018,-0.426301 1.9661,-1.384427 1.9661,-5.607766 0,-3.593921 0.39504,-5.09362 1.34172,-5.09362 0.73794,0 1.88958,-1.82862 2.55919,-4.063601 1.26846,-4.233732 2.72081,-4.677591 4.50531,-1.37688 0.577,1.067265 1.73415,3.065481 2.57144,4.440481 1.42992,2.348224 3.50707,9.715161 4.65226,16.5 0.2785,1.65 0.96225,3.938705 1.51944,5.086012 0.57694,1.187978 0.81678,6.246387 0.55711,11.75 -0.48062,10.186543 0.69372,12.740712 3.02192,6.572604 0.68691,-1.819816 1.61869,-2.812143 2.26532,-2.412506 0.66294,0.409722 1.74163,-0.958504 2.72071,-3.451006 1.03259,-2.628717 2.1028,-3.945487 2.94426,-3.622587 0.78591,0.301581 2.21391,-1.04244 3.52146,-3.314356 1.49308,-2.594274 2.73992,-3.680323 3.88225,-3.381596 1.05955,0.27708 2.51264,-0.72538 3.92351,-2.70676 1.36209,-1.912871 2.80503,-2.930275 3.67981,-2.594589 0.7915,0.303725 2.46393,-0.119276 3.71652,-0.940002 1.25258,-0.820726 2.56239,-1.207262 2.91068,-0.85897 1.00613,1.006125 -0.46417,9.650431 -2.0608,12.116036 -0.7986,1.233253 -1.19633,2.908568 -0.88383,3.722922 0.31249,0.814353 -0.53803,2.795287 -1.89005,4.402076 -1.35203,1.606789 -2.45823,3.8586 -2.45823,5.004025 0,1.145425 -1.125,2.819719 -2.5,3.720654 -1.375,0.900935 -2.5,2.354835 -2.5,3.23089 0,0.8760552 -1.65826,3.2910402 -3.68502,5.3666342 -3.6943,3.783305 -3.89104,6.275879 -0.3193,4.04528903 4.22826,-2.64059203 21.00432,-2.50082103 21.00432,0.174999 0,1.536843 -8.42579,9.59023097 -10.0337,9.59023097 -0.67256,0 -3.52762,1.2964928 -6.34457,2.8810948 -2.81695,1.584602 -6.80923,3.4195 -8.87173,4.077552 -3.77709,1.205101 -5.09339,3.041353 -2.18017,3.041353 2.00338,0 10.01709,5.48113 10.73002,7.339004 1.84685,4.812813 -12.10162,4.037897 -23.9403,-1.33002 -6.35955,-2.883554 -6.35955,-2.883554 -6.35955,4.553731 0,5.944253 -0.30112,7.437282 -1.5,7.437282 -1.18699,0 -1.5,-1.425923 -1.5,-6.83333 z m -16.79879,-4.555757 c 2.91434,-0.764 7.94349,-2.603351 11.17589,-4.087447 5.63919,-2.589124 11.85148,-2.929895 12.80012,-0.702142 1.12023,2.6307 21.82278,7.665758 21.82278,5.30751 0,-0.620857 -0.675,-1.128831 -1.5,-1.128831 -0.825,0 -1.5,-0.45 -1.5,-1 0,-0.55 -0.71949,-1 -1.59887,-1 -0.87938,0 -3.01688,-0.613882 -4.75,-1.364182 -1.73312,-0.750299 -5.07642,-2.174413 -7.42956,-3.164696 -5.92983,-2.495481 -4.82958,-3.952215 3.0678,-4.061739 3.64271,-0.05052 7.2053,-0.554621 7.91687,-1.120227 0.71157,-0.565607 3.09376,-1.35232 5.29376,-1.748252 2.2,-0.395932 4.6105,-1.224539 5.35666,-1.8413478 0.74615,-0.61681 2.11799,-1.589041 3.04851,-2.160514 10.66993,-6.55283697 11.33027,-7.85797597 3.63876,-7.19191797 -2.99249,0.25914 -6.02658,0.83831797 -6.74241,1.28706197 -0.71583,0.448743 -2.04915,0.693096 -2.96293,0.543006 -0.91377,-0.150091 -1.95283,0.19864 -2.30901,0.774958 -0.35619,0.576317 -1.6612,1.04785 -2.90003,1.04785 -1.23883,0 -3.21846,0.9 -4.39917,2 -2.14181,1.995399 -5.23038,2.708853 -5.23038,1.208208 0,-0.435486 2.025,-2.779179 4.5,-5.208208 2.475,-2.42902897 4.5,-5.045458 4.5,-5.814288 0,-0.768829 1.125,-2.282797 2.5,-3.364372 1.375,-1.081575 2.5,-2.656575 2.5,-3.5000002 0,-0.843425 1.125,-2.418425 2.5,-3.5 1.375,-1.081575 2.5,-2.725937 2.5,-3.654138 0,-0.928201 1.09837,-2.872176 2.44081,-4.319943 1.34245,-1.447768 2.18188,-2.89124 1.8654,-3.207717 -0.77707,-0.777068 1.70858,-6.639542 2.81511,-6.639542 0.48328,0 0.87868,-1.535911 0.87868,-3.413136 0,-3.405222 -0.007,-3.410439 -3.13179,-2.25 -1.72248,0.639725 -3.79923,2.175636 -4.61501,3.413136 -0.81577,1.2375 -2.33874,2.25 -3.38439,2.25 -1.18818,0 -2.52709,1.312581 -3.5702,3.5 -0.91797,1.925 -2.4017,3.5 -3.29717,3.5 -0.93249,0 -2.21491,1.495442 -3.00144,3.5 -0.75531,1.925 -1.9294,3.5 -2.60909,3.5 -0.67969,0 -1.7556,1.575 -2.39091,3.5 -0.6353,1.925 -1.74274,3.5 -2.46097,3.5 -0.71823,0 -1.54146,1.0125 -1.82939,2.2500002 -1.12857,4.850442 -4.31262,12.117662 -5.47966,12.506674 -1.63,0.543333 -1.55114,-1.209598 0.35037,-7.788746 1.84487,-6.3831512 2.72562,-28.8245672 1.20483,-30.6991132 -0.54936,-0.677152 -0.8324,-2.976461 -0.62897,-5.109576 0.21808,-2.286811 -0.14845,-4.362568 -0.89317,-5.058242 -0.69467,-0.648917 -1.26304,-3.187108 -1.26304,-5.640424 0,-2.453315 -0.44142,-4.460573 -0.98094,-4.460573 -0.53953,0 -1.26331,-1.125 -1.60841,-2.5 -0.34511,-1.375 -0.91618,-2.497155 -1.26905,-2.493677 -1.20294,0.01185 -4.49042,6.487719 -4.23577,8.343847 0.28416,2.071259 -1.77693,7.64983 -2.82635,7.64983 -0.37283,0 -0.4892,1.616121 -0.2586,3.591381 0.2306,1.975259 -0.17407,4.70004 -0.89925,6.055068 -1.04727,1.956832 -1.07287,3.114529 -0.12442,5.627247 0.97494,2.582916 0.9319,3.425772 -0.23453,4.592196 -1.23818,1.238184 -1.21783,1.955493 0.15266,5.38069 1.31488,3.286203 1.3535,4.092843 0.2292,4.787699 -1.05072,0.649379 -1.10374,1.351673 -0.23787,3.150683 1.9663,4.0853462 4.37916,12.8671532 3.79502,13.8123142 -1.22528,1.982541 -3.41356,-0.413666 -5.51891,-6.043319 -1.21467,-3.248005 -3.28271,-7.0645602 -4.59563,-8.4812332 -1.31293,-1.416673 -2.38715,-3.452585 -2.38715,-4.524248 0,-1.093804 -0.68033,-1.948478 -1.55102,-1.948478 -0.85307,0 -2.20911,-1.575 -3.01342,-3.5 -0.88556,-2.119425 -2.1563,-3.5 -3.22157,-3.5 -0.9848,0 -2.58889,-1.540681 -3.64405,-3.5 -1.03668,-1.925 -2.66226,-3.5 -3.6124,-3.5 -0.95013,0 -2.39497,-1.0125 -3.21074,-2.25 -0.81577,-1.2375 -2.81994,-2.746015 -4.45372,-3.352255 -2.97049,-1.102256 -2.97049,-1.102256 -2.25135,2.830434 0.39553,2.162979 1.22295,4.436494 1.83871,5.052255 0.61576,0.615761 1.11956,2.084573 1.11956,3.264027 0,1.179453 1.0698,3.389458 2.37732,4.911122 1.33429,1.552811 2.17043,3.557827 1.90576,4.569919 -0.29672,1.134662 0.30493,2.21882 1.62268,2.924062 1.15183,0.616442 2.09424,1.97953 2.09424,3.029084 0,1.0598352 1.33384,2.6961972 3,3.6804232 1.65,0.974679 3,2.382264 3,3.127965 0,1.685936 1.04026,2.710746 8.26398,8.141238 4.6894,3.525299 5.54479,4.597223 4.58827,5.749757 -0.64664,0.7791508 -1.44043,1.0134798 -1.76398,0.5207308 -0.97872,-1.4905508 -10.0353,-6.1987618 -11.92375,-6.1987618 -0.97048,0 -2.29749,-0.532974 -2.9489,-1.184387 -1.33486,-1.334857 -3.22849,-1.744426 -11.46562,-2.47987097 -3.1625,-0.282361 -5.73839,-0.135915 -5.72421,0.325437 0.0289,0.93877397 8.50909,6.73536597 11.22421,7.67221597 0.9625,0.332109 1.75,1.010445 1.75,1.507412 0,0.4969668 1.89018,1.2058268 4.20039,1.5752448 2.31021,0.369418 4.6904,1.078343 5.2893,1.575388 0.5989,0.497046 4.15956,1.128141 7.91257,1.402433 9.24267,0.67551 10.25042,2.318249 2.83381,4.619416 -2.05483,0.637561 -5.15408,1.79539 -6.8872,2.572956 -1.73312,0.777565 -3.53312,1.423761 -4,1.435991 -0.46688,0.01223 -1.97387,0.902223 -3.34887,1.977764 -2.5,1.955528 -2.5,1.955528 0.20121,1.977764 1.48567,0.01223 5.08567,-0.602855 8,-1.366854 z"
       id="path3" />
  </g>
</svg>
