<?xml version="1.0" encoding="UTF-8" standalone="no"?>
<!-- Created with Inkscape (http://www.inkscape.org/) -->

<svg
   version="1.1"
   id="svg1"
   width="103"
   height="92"
   viewBox="0 0 103 92"
   xmlns="http://www.w3.org/2000/svg"
   xmlns:svg="http://www.w3.org/2000/svg">
  <defs
     id="defs1" />
  <g
     id="g1"
     transform="translate(-114.55906,-104.3374)"
     style="fill:#ffe6d5">
    <path
       style="fill:#ffe6d5"
       d="m 158.03842,191.55768 c -32.85091,-18.7209 -50.57154,-49.23209 -40.80116,-70.25098 5.08048,-10.92958 14.49128,-16.9693 26.44073,-16.9693 5.40158,0 8.3072,0.57423 12.25,2.42094 2.84284,1.33151 5.1688,2.81194 5.1688,3.28984 0,0.47789 -0.9,2.63304 -2,4.78922 -1.1,2.15618 -2,4.41226 -2,5.01351 0,0.60125 2.50999,4.19975 5.57775,7.99666 l 5.57775,6.90347 -3.07775,4.47336 c -1.69276,2.46034 -3.07775,4.85919 -3.07775,5.33077 0,0.47158 2.29764,3.0905 5.10586,5.81982 l 5.10585,4.96241 -2.10585,-4.21016 c -2.70617,-5.41033 -2.6509,-7.02347 0.39414,-11.50465 1.375,-2.02349 2.5,-4.15835 2.5,-4.74412 0,-0.58577 -2.06442,-4.16964 -4.5876,-7.96415 l -4.5876,-6.89911 3.48694,-5.45097 c 4.77216,-7.46007 10.36915,-10.22684 20.68826,-10.22684 8.77063,0 14.45658,2.29868 20.44784,8.26652 5.34687,5.32597 7.77519,10.66587 8.32348,18.30341 1.2109,16.86756 -7.82904,33.85298 -25.99641,48.84542 -6.48534,5.35196 -19.89729,14.12604 -23.77779,15.55539 -0.82658,0.30447 -4.90155,-1.38324 -9.05549,-3.75046 z m 11.35803,-1.36745 c 18.62754,-9.58733 37.21701,-28.70597 42.3257,-43.53056 2.63465,-7.64531 2.4853,-19.08178 -0.31831,-24.37518 -5.02996,-9.49687 -12.96928,-14.40316 -23.30705,-14.40316 -8.60352,0 -14.0408,2.47634 -17.51249,7.97586 l -2.63351,4.17175 4.99373,7.56139 4.99373,7.56139 -3.34135,4.96162 -3.34135,4.96163 3.5473,7.63121 c 4.26383,9.17265 5.0392,12.13122 3.17931,12.13122 -1.92506,0 -19.88537,-18.13629 -19.88537,-20.08021 0,-0.89084 1.2971,-3.41031 2.88246,-5.59883 l 2.88245,-3.97911 -5.37446,-6.92092 c -2.95595,-3.80651 -5.37806,-7.50136 -5.38245,-8.21077 -0.004,-0.70941 0.897,-3.06378 2.00311,-5.23193 l 2.01111,-3.9421 -3.63323,-1.51807 c -5.84015,-2.44017 -15.08431,-1.97253 -21.19422,1.07217 -11.80858,5.88447 -16.6851,18.46793 -12.80464,33.04138 4.37915,16.44638 17.31277,30.61426 42.60987,46.67616 3.18355,2.02133 3.45662,2.02302 7.29966,0.0451 z"
       id="path2" />
  </g>
</svg>
