<?xml version="1.0" encoding="UTF-8" standalone="no"?>
<!-- Created with Inkscape (http://www.inkscape.org/) -->

<svg
   version="1.1"
   id="svg1"
   width="159"
   height="106"
   viewBox="0 0 159 106"
   xmlns="http://www.w3.org/2000/svg"
   xmlns:svg="http://www.w3.org/2000/svg">
  <defs
     id="defs1" />
  <g
     id="g1"
     transform="translate(-130.9563,-110.14023)"
     style="fill:#ffe6d5">
    <path
       style="fill:#ffe6d5"
       d="m 135.4563,214.44721 c -4.48696,-2.45418 -4.5,-2.56561 -4.5,-38.45461 0,-18.8249 0.27953,-34.95553 0.62118,-35.84586 0.99303,-2.58778 5.87144,-4.5448 11.32916,-4.5448 h 5.04966 v -3.41821 c 0,-5.02085 0.64502,-6.07348 6.37041,-10.39619 12.36369,-9.33468 20.5291,-11.5918 42.12959,-11.64569 12.29844,-0.0307 17.47595,0.36785 22.37977,1.72264 7.35551,2.03213 15.6341,5.96701 18.83275,8.95136 1.21688,1.13536 3.24188,2.57513 4.5,3.19949 1.87436,0.93018 2.34207,2.07897 2.58974,6.3609 l 0.30226,5.2257 h 6.02467 c 5.3255,0 6.36388,0.33922 8.94774,2.92308 2.90805,2.90805 2.92307,2.98515 2.92307,15 0,11.41025 0.11041,12.07692 2,12.07692 1.892,0 2,-0.66667 2,-12.34501 0,-10.955 -0.21881,-12.54304 -1.94332,-14.10369 -4.11642,-3.72531 -3.05686,-11.87528 1.88793,-14.52165 2.47038,-1.32211 7.6404,-1.32211 10.11078,0 4.9448,2.64637 6.00436,10.79634 1.88793,14.52165 -1.7245,1.56065 -1.94332,3.14869 -1.94332,14.10369 v 12.34501 h 3.03223 c 2.14558,0 3.25441,0.60065 3.7921,2.05414 0.41793,1.12977 1.86593,2.60556 3.21777,3.27953 3.50535,1.74761 3.50535,7.58506 0,9.33266 -1.35184,0.67397 -2.79984,2.14976 -3.21777,3.27953 -0.69738,1.88519 -1.58503,2.05414 -10.7921,2.05414 H 262.9563 v 12.07692 c 0,12.01485 -0.015,12.09195 -2.92307,15 l -2.92308,2.92308 -59.82692,-0.0304 c -41.36905,-0.021 -60.44397,-0.3679 -61.82693,-1.12432 z m 122.67126,-3.50026 c 1.70236,-1.54061 1.82874,-3.97123 1.82874,-35.17126 0,-29.78392 -0.1843,-33.71991 -1.65498,-35.34501 -1.5681,-1.73272 -4.78715,-1.82874 -61.30887,-1.82874 -49.94155,0 -59.96993,0.23109 -61.59502,1.41939 -1.85592,1.35709 -1.94113,2.91888 -1.94113,35.58061 0,32.66173 0.0852,34.22352 1.94113,35.58061 1.62494,1.18819 11.62978,1.41939 61.42126,1.41939 53.94357,0 59.65036,-0.15405 61.30887,-1.65499 z M 137.1563,210.40194 c -2.69531,-2.69531 -0.5941,-6.8 3.48095,-6.8 1.60217,0 2.46864,0.74783 2.91167,2.51298 1.08159,4.30942 -3.37891,7.30073 -6.39262,4.28702 z m 3.8,-3.35902 c 0,-0.85746 -0.45,-1.2809 -1,-0.94098 -0.55,0.33992 -1,1.04148 -1,1.55902 0,0.51754 0.45,0.94098 1,0.94098 0.55,0 1,-0.70156 1,-1.55902 z m 10.08573,3.16232 c -0.68159,-0.82127 -1.09221,-2.53049 -0.91249,-3.79826 0.25514,-1.79983 0.96041,-2.30504 3.21778,-2.30504 3.56449,0 5.6103,2.68396 4.00174,5.25 -1.43572,2.29033 -4.74304,2.73778 -6.30703,0.8533 z m 3.91427,-2.54428 c 0,-0.51754 -0.45,-1.2191 -1,-1.55902 -0.55,-0.33992 -1,0.0835 -1,0.94098 0,0.85746 0.45,1.55902 1,1.55902 0.55,0 1,-0.42344 1,-0.94098 z m 10.04568,2.49602 c -1.91067,-2.30222 -0.88952,-6.0063 1.75937,-6.38181 4.42303,-0.62701 6.65419,3.22467 3.62352,6.25534 -1.95871,1.95871 -3.82585,2.00258 -5.38289,0.12647 z m 3.95432,-2.38837 c 0,-1.30208 -1.18877,-2.16804 -2.15579,-1.57039 -1.03422,0.63919 -0.14244,2.40372 1.21481,2.40372 0.51754,0 0.94098,-0.375 0.94098,-0.83333 z m 9.60427,1.67872 c -1.08625,-1.55083 -1.23239,-2.67173 -0.52152,-4 1.30217,-2.43314 5.56177,-2.37813 6.88207,0.0889 1.33879,2.50156 1.32284,2.63522 -0.53625,4.49431 -2.15732,2.15732 -4.03658,1.96915 -5.8243,-0.58318 z m 4.39573,-1.67872 c 0,-1.30208 -1.18877,-2.16804 -2.15579,-1.57039 -1.03422,0.63919 -0.14244,2.40372 1.21481,2.40372 0.51754,0 0.94098,-0.375 0.94098,-0.83333 z m 12.2,2.63333 c -2.85993,-2.85993 -0.22817,-7.22544 3.99496,-6.62677 4.22704,0.59923 3.19519,7.82677 -1.1174,7.82677 -0.92266,0 -2.21756,-0.54 -2.87756,-1.2 z m 3.8,-3.35902 c 0,-0.85746 -0.45,-1.2809 -1,-0.94098 -0.55,0.33992 -1,1.04148 -1,1.55902 0,0.51754 0.45,0.94098 1,0.94098 0.55,0 1,-0.70156 1,-1.55902 z m 10.05083,3.12026 c -0.75724,-0.91242 -1.01186,-2.58036 -0.62762,-4.11131 0.51884,-2.0672 1.16295,-2.51421 3.26081,-2.26299 1.43784,0.17218 3.10735,1.10056 3.71001,2.06306 2.30323,3.67846 -3.56069,7.66396 -6.3432,4.31124 z m 3.94917,-2.50222 c 0,-0.51754 -0.45,-1.2191 -1,-1.55902 -0.55,-0.33992 -1,0.0835 -1,0.94098 0,0.85746 0.45,1.55902 1,1.55902 0.55,0 1,-0.42344 1,-0.94098 z m 10.04568,2.49602 c -1.91067,-2.30222 -0.88952,-6.0063 1.75937,-6.38181 4.42303,-0.62701 6.65419,3.22467 3.62352,6.25534 -1.95871,1.95871 -3.82585,2.00258 -5.38289,0.12647 z m 3.95432,-2.38837 c 0,-1.30208 -1.18877,-2.16804 -2.15579,-1.57039 -1.03422,0.63919 -0.14244,2.40372 1.21481,2.40372 0.51754,0 0.94098,-0.375 0.94098,-0.83333 z m 9.60427,1.67872 c -1.08625,-1.55083 -1.23239,-2.67173 -0.52152,-4 1.30217,-2.43314 5.56177,-2.37813 6.88207,0.0889 1.33879,2.50156 1.32284,2.63522 -0.53625,4.49431 -2.15732,2.15732 -4.03658,1.96915 -5.8243,-0.58318 z m 4.39573,-1.67872 c 0,-1.30208 -1.18877,-2.16804 -2.15579,-1.57039 -1.03422,0.63919 -0.14244,2.40372 1.21481,2.40372 0.51754,0 0.94098,-0.375 0.94098,-0.83333 z m 9.57143,2.2619 c -1.95871,-1.95871 -2.00258,-3.82586 -0.12647,-5.38289 2.30223,-1.91068 6.0063,-0.88952 6.38181,1.75936 0.62701,4.42303 -3.22467,6.6542 -6.25534,3.62353 z m 3.50357,-2.70357 c -0.12369,-1.1957 -1.49529,-0.96414 -1.925,0.325 -0.22,0.66 0.14,1.02 0.8,0.8 0.66,-0.22 1.16625,-0.72625 1.125,-1.125 z m -109.62468,-6.99389 c -0.26781,-0.69789 -0.36619,-12.28539 -0.21862,-25.75 l 0.2683,-24.48111 52.25,-0.25892 52.25,-0.25892 v 26.00892 26.00892 h -52.03138 c -41.11571,0 -52.13354,-0.2662 -52.5183,-1.26889 z M 245.9563,175.60194 v -23 h -49.5 -49.5 v 23 23 h 49.5 49.5 z m -94.54598,16.74078 c -0.27807,-0.72466 -0.38148,-8.72528 -0.2298,-17.77917 l 0.27578,-16.46161 h 13.5 13.5 v 17.5 17.5 l -13.27019,0.27916 c -10.25782,0.2158 -13.38496,-0.0199 -13.77579,-1.03838 z m 24.54598,-16.74078 v -15 h -11 -11 v 15 15 h 11 11 z m -12,11.21561 c 0,-0.43142 -1.35,-1.58186 -3,-2.55654 -1.65,-0.97468 -3,-2.4217 -3,-3.2156 0,-1.83791 0.50584,-1.81336 3.53519,0.17154 2.43788,1.59736 2.46481,1.58097 2.46481,-1.5 0,-1.71325 -0.41785,-3.11501 -0.92857,-3.11501 -1.61452,0 -4.07143,-3.06585 -4.07143,-5.08053 0,-2.40099 5.85294,-8.72445 6.81032,-7.3578 0.37932,0.54149 1.97529,1.80353 3.54659,2.80453 2.08854,1.33051 2.5592,2.1177 1.75,2.9269 -0.80921,0.8092 -1.42964,0.78416 -2.30691,-0.0931 -1.90741,-1.90741 -2.80048,-1.41191 -2.79367,1.55 0.005,2.00466 0.8177,3.2117 3,4.45349 3.92686,2.2345 3.78696,4.75328 -0.47968,8.63583 -3.56251,3.24182 -4.52665,3.74795 -4.52665,2.37629 z m 4.55931,-8.11965 c -1.22722,-1.98568 -2.55931,-1.14336 -2.55931,1.61833 0,2.5009 0.12723,2.58706 1.61833,1.09596 0.89008,-0.89008 1.31352,-2.11151 0.94098,-2.71429 z m -4.55931,-7.65498 c 0,-1.45136 -0.43284,-2.2915 -1,-1.94098 -0.55,0.33992 -1,1.49148 -1,2.55902 0,1.06754 0.45,1.94098 1,1.94098 0.55,0 1,-1.15156 1,-2.55902 z m 19,4.55902 V 157.5455 l 13.75,0.27822 13.75,0.27822 v 17.5 17.5 l -13.75,0.27822 -13.75,0.27822 z m 25,0 v -15 h -11 -11 v 15 15 h 11 11 z m -15.25,9.10448 c -4.01547,-3.91295 -3.62489,-7.11121 0.42126,-3.44949 1.73191,1.56735 1.82874,1.50067 1.82874,-1.25945 0,-1.83144 -0.7432,-3.37858 -2,-4.16347 -2.73301,-1.70679 -2.50991,-6.08092 0.48364,-9.48207 2.36181,-2.68339 4.51636,-3.59481 4.51636,-1.91051 0,0.46171 1.125,1.35207 2.5,1.97856 1.375,0.62649 2.5,1.82372 2.5,2.66051 0,1.71567 -1.56074,2.0412 -2.5,0.52144 -1.22188,-1.97705 -2.5,-0.94191 -2.5,2.02475 0,2.25973 0.59781,3.25204 2.36362,3.9234 4.55499,1.7318 4.26019,5.44021 -0.7792,9.80185 -3.16147,2.73628 -3.38574,2.7151 -6.83442,-0.64552 z m 8.25,-5.11993 c 0,-0.42382 -0.675,-1.02959 -1.5,-1.34618 -1.09549,-0.42037 -1.5,0.12314 -1.5,2.01546 0,2.18978 0.23231,2.39826 1.5,1.34617 0.825,-0.68469 1.5,-1.59164 1.5,-2.01545 z m -6.33772,-9.23455 c -0.27741,-0.6875 -0.50438,-0.125 -0.50438,1.25 0,1.375 0.22697,1.9375 0.50438,1.25 0.27742,-0.6875 0.27742,-1.8125 0,-2.5 z m 20.33772,5.25 v -18 h 13.5 13.5 v 18 18 h -13.5 -13.5 z m 25,0 v -15 h -11.5 -11.5 v 15 15 h 11.5 11.5 z m -15.25,9.10448 c -4.01547,-3.91295 -3.62489,-7.11121 0.42126,-3.44949 1.73191,1.56735 1.82874,1.50067 1.82874,-1.25945 0,-1.83144 -0.7432,-3.37858 -2,-4.16347 -2.73301,-1.70679 -2.50991,-6.08092 0.48364,-9.48207 2.36181,-2.68339 4.51636,-3.59481 4.51636,-1.91051 0,0.46171 1.125,1.35207 2.5,1.97856 1.375,0.62649 2.5,1.82372 2.5,2.66051 0,1.71567 -1.56074,2.0412 -2.5,0.52144 -1.2214,-1.97626 -2.5,-0.94242 -2.5,2.02144 0,2.25245 0.63628,3.31135 2.5,4.16051 3.59319,1.63717 3.32744,5.64661 -0.60282,9.09537 -1.70656,1.49747 -3.39406,2.67414 -3.75,2.61481 -0.35595,-0.0593 -1.88468,-1.31377 -3.39718,-2.78765 z m 7.19651,-4.00452 c 0.7698,-1.4384 0.65687,-2.03818 -0.46482,-2.46861 -1.06232,-0.40765 -1.48169,0.13012 -1.48169,1.90004 0,2.95958 0.57672,3.12804 1.94651,0.56857 z m -4.94651,-9.29996 c 0,-1.61542 -0.29571,-1.90429 -1.11286,-1.08713 -0.61208,0.61208 -0.81052,1.60208 -0.44099,2.2 1.03439,1.67368 1.55385,1.30164 1.55385,-1.11287 z m -90.8,25 c -0.66,-0.66 -1.2,-2.22643 -1.2,-3.48095 0,-2.74224 4.19756,-4.2299 6.51299,-2.30827 2.80322,2.32646 1.12671,6.98922 -2.51299,6.98922 -0.88,0 -2.14,-0.54 -2.8,-1.2 z m 3.8,-2.8 c 0,-0.55 -0.70155,-1 -1.55901,-1 -0.85746,0 -1.28091,0.45 -0.94099,1 0.33992,0.55 1.04148,1 1.55902,1 0.51754,0 0.94098,-0.45 0.94098,-1 z m 112.2,2.8 c -0.66,-0.66 -1.2,-2.22643 -1.2,-3.48095 0,-2.74224 4.19756,-4.2299 6.51299,-2.30827 2.80322,2.32646 1.12671,6.98922 -2.51299,6.98922 -0.88,0 -2.14,-0.54 -2.8,-1.2 z m 3.8,-2.8 c 0,-0.55 -0.70155,-1 -1.55901,-1 -0.85746,0 -1.28091,0.45 -0.94099,1 0.33992,0.55 1.04148,1 1.55902,1 0.51754,0 0.94098,-0.45 0.94098,-1 z m -119.8,-15.2 c -0.66,-0.66 -1.2,-2.22643 -1.2,-3.48095 0,-2.74224 4.19756,-4.2299 6.51299,-2.30827 2.80322,2.32646 1.12671,6.98922 -2.51299,6.98922 -0.88,0 -2.14,-0.54 -2.8,-1.2 z m 3.8,-2.8 c 0,-0.55 -0.675,-1 -1.5,-1 -0.825,0 -1.5,0.45 -1.5,1 0,0.55 0.675,1 1.5,1 0.825,0 1.5,-0.45 1.5,-1 z m 112.03987,2.54804 c -2.65645,-3.20083 1.24524,-8.11777 4.71013,-5.93574 3.46233,2.18041 2.22883,7.3877 -1.75,7.3877 -0.96531,0 -2.29737,-0.65338 -2.96013,-1.45196 z m 3.96013,-2.54804 c 0,-0.55 -0.45,-1 -1,-1 -0.55,0 -1,0.45 -1,1 0,0.55 0.45,1 1,1 0.55,0 1,-0.45 1,-1 z m -119.75,-14.64378 c -0.6875,-0.28759 -1.25,-1.55529 -1.25,-2.81711 0,-4.4495 5.04312,-6.01213 7.3877,-2.28911 2.05967,3.2706 -2.1512,6.7738 -6.1377,5.10622 z m 3.75,-3.35622 c 0,-0.55 -0.42344,-1 -0.94098,-1 -0.51754,0 -1.2191,0.45 -1.55902,1 -0.33992,0.55 0.0835,1 0.94099,1 0.85746,0 1.55901,-0.45 1.55901,-1 z m 112.25,3.35622 c -0.6875,-0.28759 -1.25,-1.55529 -1.25,-2.81711 0,-4.4495 5.04312,-6.01213 7.3877,-2.28911 2.05967,3.2706 -2.1512,6.7738 -6.1377,5.10622 z m 3.75,-3.35622 c 0,-0.55 -0.42344,-1 -0.94098,-1 -0.51754,0 -1.2191,0.45 -1.55902,1 -0.33992,0.55 0.0835,1 0.94099,1 0.85746,0 1.55901,-0.45 1.55901,-1 z m -118.8,-11.2 c -2.47912,-2.47912 -0.65066,-6.8 2.87756,-6.8 2.53942,0 4.2299,2.63884 3.51506,5.48702 -0.69055,2.75137 -4.22773,3.47787 -6.39262,1.31298 z m 3.40417,-3.52917 c -1.01652,-1.01651 -1.85525,0.5139 -1.02122,1.86339 0.63004,1.01941 0.86558,1.0202 1.2043,0.004 0.2316,-0.69479 0.14921,-1.53512 -0.18308,-1.86742 z m 9.77987,3.28758 c -1.50029,-3.90971 2.15962,-7.96532 5.36596,-5.94611 3.77635,2.37817 2.14634,7.3877 -2.40383,7.3877 -1.32491,0 -2.65787,-0.64871 -2.96213,-1.44159 z m 4.61596,-2.61743 c 0,-0.51754 -0.45,-0.94098 -1,-0.94098 -0.55,0 -1,0.70156 -1,1.55902 0,0.85746 0.45,1.2809 1,0.94098 0.55,-0.33992 1,-1.04148 1,-1.55902 z m 9.66667,3.39235 c -1.18837,-1.18837 -0.70574,-5.05601 0.78535,-6.2935 3.26945,-2.71341 8.22156,2.23871 5.50816,5.50816 -1.2375,1.49109 -5.10514,1.97372 -6.29351,0.78534 z m 4.0832,-3.9168 c -0.95296,-0.95296 -2.86349,0.5906 -2.15331,1.7397 0.42212,0.68301 0.98146,0.66575 1.69964,-0.0524 0.58876,-0.58875 0.79291,-1.34803 0.45367,-1.68727 z m 9.29983,2.67633 c -0.77486,-1.44784 -0.58776,-2.44176 0.77689,-4.12703 3.17362,-3.91925 8.516,-0.34299 6.13464,4.10661 -1.33557,2.49555 -5.58017,2.50808 -6.91153,0.0204 z m 4.70017,-2.67633 c -0.95296,-0.95296 -2.86349,0.5906 -2.15331,1.7397 0.42212,0.68301 0.98146,0.66575 1.69964,-0.0524 0.58876,-0.58875 0.79291,-1.34803 0.45367,-1.68727 z m 12.33196,3.18207 c -1.59261,-1.91898 -1.07452,-4.57396 1.16817,-5.9863 2.56522,-1.61545 5.25,0.42841 5.25,3.99669 0,2.36511 -0.47034,2.94569 -2.58559,3.19157 -1.42208,0.16531 -3.14674,-0.37558 -3.83258,-1.20196 z m 3.52234,-3.32777 c -1.01652,-1.01651 -1.85525,0.5139 -1.02122,1.86339 0.63004,1.01941 0.86558,1.0202 1.2043,0.004 0.2316,-0.69479 0.14921,-1.53512 -0.18308,-1.86742 z m 9.81904,2.27924 c -1.2267,-4.88759 4.32619,-7.51687 6.96955,-3.30007 1.50614,2.40266 -0.33117,5.15859 -3.70874,5.56306 -2.09786,0.25122 -2.74197,-0.19579 -3.26081,-2.26299 z m 4.57679,-1.60909 c 0,-0.51754 -0.45,-0.94098 -1,-0.94098 -0.55,0 -1,0.70156 -1,1.55902 0,0.85746 0.45,1.2809 1,0.94098 0.55,-0.33992 1,-1.04148 1,-1.55902 z m 9.66667,3.39235 c -1.18837,-1.18837 -0.70574,-5.05601 0.78535,-6.2935 3.26945,-2.71341 8.22156,2.23871 5.50816,5.50816 -1.2375,1.49109 -5.10514,1.97372 -6.29351,0.78534 z m 4.0832,-3.9168 c -0.95296,-0.95296 -2.86349,0.5906 -2.15331,1.7397 0.42212,0.68301 0.98146,0.66575 1.69964,-0.0524 0.58876,-0.58875 0.79291,-1.34803 0.45367,-1.68727 z m 9.29983,2.67633 c -0.77486,-1.44784 -0.58776,-2.44176 0.77689,-4.12703 3.17362,-3.91925 8.516,-0.34299 6.13464,4.10661 -1.33557,2.49555 -5.58017,2.50808 -6.91153,0.0204 z m 4.70017,-2.67633 c -0.95296,-0.95296 -2.86349,0.5906 -2.15331,1.7397 0.42212,0.68301 0.98146,0.66575 1.69964,-0.0524 0.58876,-0.58875 0.79291,-1.34803 0.45367,-1.68727 z m 9.33192,3.18202 c -1.62583,-1.95901 -0.51799,-5.32533 2.01735,-6.13001 2.74064,-0.86985 5.06395,1.32718 4.70142,4.44587 -0.22537,1.93875 -0.9474,2.66078 -2.88615,2.88615 -1.42208,0.16531 -3.14676,-0.3756 -3.83262,-1.20201 z m 4.02201,-2.89475 c -1.28348,-1.28349 -2.58505,-0.2915 -1.63483,1.24598 0.36807,0.59557 1.12735,0.79971 1.68726,0.45367 0.68301,-0.42212 0.66575,-0.98147 -0.0524,-1.69965 z m 12.8962,32.2962 c 0,-6.33333 -0.19047,-7 -2,-7 -1.80952,0 -2,0.66667 -2,7 0,6.33333 0.19048,7 2,7 1.80953,0 2,-0.66667 2,-7 z m 7,0 c 0,-6.33333 -0.19047,-7 -2,-7 -1.80952,0 -2,0.66667 -2,7 0,6.33333 0.19048,7 2,7 1.80953,0 2,-0.66667 2,-7 z m 7,0 c 0,-6.33333 -0.19047,-7 -2,-7 -1.80952,0 -2,0.66667 -2,7 0,6.33333 0.19048,7 2,7 1.80953,0 2,-0.66667 2,-7 z m 6,1.5 c 0.99319,-1.19671 0.99319,-1.80328 0,-3 -1.92784,-2.32291 -3,-1.78683 -3,1.5 0,3.28683 1.07216,3.82291 3,1.5 z m -13,-23 c 0,-10.83333 -0.11594,-11.5 -2,-11.5 -1.88405,0 -2,0.66667 -2,11.5 0,10.83333 0.11595,11.5 2,11.5 1.88406,0 2,-0.66667 2,-11.5 z m 2.92742,-17.13486 c 2.5581,-3.25209 2.61825,-5.46971 0.22842,-8.42102 -2.50728,-3.09635 -7.80439,-3.09635 -10.31167,0 -2.38983,2.95131 -2.32968,5.16893 0.22841,8.42102 2.78491,3.54044 7.06993,3.54044 9.85484,0 z m -6.88759,-1.81715 c -1.6253,-1.95836 -0.42891,-5.28972 2.19925,-6.12387 2.96594,-0.94135 6.17947,2.9253 4.71123,5.66874 -1.20617,2.25374 -5.19949,2.51674 -6.91048,0.45513 z m 4.06397,-2.84419 c -1.28348,-1.28349 -2.58505,-0.2915 -1.63483,1.24598 0.36807,0.59557 1.12735,0.79971 1.68726,0.45367 0.68301,-0.42212 0.66575,-0.98147 -0.0524,-1.69965 z m -120.1038,1.62494 c 0,-0.91919 0.74475,-2.49419 1.65499,-3.5 1.54931,-1.71196 4.13963,-1.82874 40.56574,-1.82874 23.32538,0 39.63943,0.38998 40.72999,0.97362 1.00057,0.5355 2.10456,2.1105 2.45331,3.5 1.01661,4.05051 2.59597,2.91487 2.59597,-1.86663 0,-3.08336 -0.47156,-4.57397 -1.58178,-5 -0.86999,-0.33384 -20.80499,-0.60699 -44.3,-0.60699 -31.89195,0 -43.02234,0.30412 -43.91822,1.2 -1.80148,1.80148 -1.56289,8.8 0.3,8.8 0.825,0 1.5,-0.75207 1.5,-1.67126 z m 82.80963,-0.0787 c -0.31418,-1.63142 -3.01172,-1.75 -39.80963,-1.75 -36.7979,0 -39.49544,0.11858 -39.80963,1.75 -0.31645,1.6432 2.11301,1.75 39.80963,1.75 37.69663,0 40.12608,-0.1068 39.80963,-1.75 z m -2.30963,-11.89572 c -7.50402,-5.93611 -21.17388,-9.31245 -37.80259,-9.33692 -13.08721,-0.0192 -23.14854,1.78522 -31.34504,5.62165 -11.41677,5.34369 -11.29578,5.36398 31.77519,5.32919 36.0854,-0.0292 39.20547,-0.16389 37.37244,-1.61392 z"
       id="path2" />
  </g>
</svg>
