<?xml version="1.0" encoding="UTF-8" standalone="no"?>
<!-- Created with Inkscape (http://www.inkscape.org/) -->

<svg
   version="1.1"
   id="svg1"
   width="80"
   height="80"
   viewBox="0 0 80 80"
   xmlns="http://www.w3.org/2000/svg"
   xmlns:svg="http://www.w3.org/2000/svg">
  <defs
     id="defs1" />
  <g
     id="g1"
     transform="translate(152.95562,-9.7239899)"
     style="fill:#ffe6d5">
    <path
       style="fill:#ffe6d5"
       d="m -135.41474,88.88934 c -8.44887,-2.17385 -14.76212,-8.43866 -16.45404,-16.32778 -1.66467,-7.76209 -1.34185,-41.4193 0.45531,-47.471 1.80247,-6.06958 8.29812,-12.60296 14.14404,-14.2262 6.30047,-1.7494596 44.203312,-1.3990096 49.464795,0.45735 5.193999,1.83255 9.282875,5.49677 12.231482,10.96116 2.036516,3.77409 2.158417,5.32721 2.158417,27.5 0,22.15016 -0.12365,23.72976 -2.152682,27.5 -2.496565,4.63898 -5.435166,7.5151 -10.347318,10.12728 -3.06168,1.62815 -6.192537,1.88565 -25.000004,2.05615 -11.825,0.10721 -22.85,-0.15243 -24.5,-0.57696 z m 48.250264,-5.22762 c 2.636426,-1.27627 5.450781,-3.73529 7.065724,-6.17362 2.683324,-4.05143 2.684094,-4.05823 2.987088,-26.36466 0.345921,-25.46672 -0.330964,-28.59049 -7.356392,-33.94904 l -3.790995,-2.89153 h -24.655689 -24.65568 l -3.68139,2.80793 c -7.09066,5.40831 -7.66293,7.81184 -7.66293,32.18435 0,26.77003 1.06931,30.29639 10.5,34.62699 3.48058,1.59828 6.78337,1.83965 25.43428,1.85877 19.823963,0.0203 21.763464,-0.1374 25.815984,-2.09919 z m -32.250264,-15.3816 c -5.23267,-1.85102 -11.06348,-8.16244 -12.51257,-13.54395 -2.39185,-8.88267 1.85783,-18.20233 10.19442,-22.35663 2.86596,-1.42817 6.35999,-2.59416 7.7645,-2.5911 7.1225,0.0156 15.402895,4.90153 18.519007,10.92743 5.423821,10.48851 0.0607,23.50037 -11.344807,27.52447 -5.30251,1.87083 -7.42538,1.87752 -12.62055,0.0398 z m 13.53811,-4.74725 c 6.026512,-3.03899 9.498538,-9.68574 8.508427,-16.28827 -1.831364,-12.21241 -16.674847,-17.55604 -26.006857,-9.36242 -8.57455,7.52855 -6.53264,21.27485 3.86139,25.99525 5.38808,2.44697 8.24437,2.3748 13.63704,-0.34456 z m 12.007575,-33.19496 c -2.844257,-3.42712 1.07853,-9.22068 4.704319,-6.9478 3.568338,2.23686 2.284754,8.39276 -1.75,8.39276 -0.965311,0 -2.294754,-0.65023 -2.954319,-1.44496 z"
       id="path2" />
  </g>
</svg>
