<svg xmlns="http://www.w3.org/2000/svg" xmlns:xlink="http://www.w3.org/1999/xlink" width="90" zoomAndPan="magnify" viewBox="0 0 67.5 67.499996" height="90" preserveAspectRatio="xMidYMid meet" version="1.0"><defs><clipPath id="399ef0addb"><path d="M 33.636719 27.542969 L 66.628906 27.542969 L 66.628906 65.855469 L 33.636719 65.855469 Z M 33.636719 27.542969 " clip-rule="nonzero"/></clipPath><clipPath id="edfb51728d"><path d="M 0 1.148438 L 38.3125 1.148438 L 38.3125 39.460938 L 0 39.460938 Z M 0 1.148438 " clip-rule="nonzero"/></clipPath></defs><g clip-path="url(#399ef0addb)"><path fill="#ffe6d5" d="M 42.574219 65.488281 C 33.789062 62.566406 30.777344 52.378906 36.722656 45.695312 C 39.164062 42.949219 41.246094 41.890625 44.714844 41.640625 L 47.460938 41.441406 L 47.460938 44.9375 C 47.460938 48.421875 47.457031 48.4375 46.472656 48.246094 C 44.902344 47.941406 42.652344 48.914062 41.550781 50.375 C 39.671875 52.867188 40.449219 56.90625 43.074219 58.277344 C 45.8125 59.710938 48.738281 58.890625 50.332031 56.25 C 51.074219 55.015625 51.125 54.089844 51.125 41.242188 L 51.128906 27.546875 L 54.398438 27.546875 C 56.667969 27.546875 57.714844 27.707031 57.816406 28.0625 C 57.894531 28.347656 58.183594 29.414062 58.457031 30.429688 C 59.144531 33.003906 61.769531 35.511719 64.527344 36.226562 L 66.605469 36.765625 L 66.605469 39.980469 C 66.605469 42.332031 66.464844 43.199219 66.082031 43.199219 C 64.890625 43.199219 60.921875 41.945312 59.585938 41.148438 L 58.148438 40.292969 L 57.988281 48.265625 L 57.824219 56.238281 L 56.5 58.960938 C 55.160156 61.710938 53.523438 63.375 50.722656 64.828125 C 49.148438 65.644531 44.242188 66.042969 42.574219 65.488281 Z M 49.613281 63.960938 C 51.953125 63.15625 54.589844 60.628906 55.746094 58.089844 C 56.527344 56.367188 56.636719 55.234375 56.824219 46.945312 L 57.035156 37.722656 L 58.324219 38.820312 C 59.664062 39.960938 62.328125 41.257812 64.265625 41.714844 C 65.378906 41.976562 65.382812 41.964844 65.382812 39.789062 L 65.382812 37.601562 L 63.453125 37.082031 C 60.894531 36.390625 57.847656 33.273438 57.152344 30.636719 L 56.660156 28.785156 L 52.351562 28.785156 L 52.351562 41.769531 C 52.351562 55.984375 52.292969 56.394531 49.949219 58.621094 C 48.875 59.644531 48.265625 59.863281 46.132812 59.996094 C 43.980469 60.132812 43.378906 60.007812 42.207031 59.191406 C 38.328125 56.492188 38.359375 50.546875 42.265625 48.136719 C 42.996094 47.6875 44.1875 47.203125 44.917969 47.066406 C 46.195312 46.820312 46.242188 46.746094 46.242188 44.800781 L 46.242188 42.785156 L 44.660156 42.785156 C 39.789062 42.785156 34.847656 48.074219 34.84375 53.289062 C 34.839844 54.421875 35.03125 56.039062 35.261719 56.882812 C 35.734375 58.597656 37.753906 61.453125 39.339844 62.640625 C 41.9375 64.585938 46.210938 65.136719 49.613281 63.960938 Z M 49.613281 63.960938 " fill-opacity="1" fill-rule="nonzero"/></g><g clip-path="url(#edfb51728d)"><path fill="#ffe6d5" d="M 8.402344 39.0625 C 4.355469 38.019531 1.332031 35.019531 0.519531 31.242188 C -0.277344 27.523438 -0.121094 11.40625 0.738281 8.507812 C 1.601562 5.601562 4.710938 2.472656 7.511719 1.695312 C 10.53125 0.855469 28.683594 1.023438 31.203125 1.914062 C 33.691406 2.789062 35.648438 4.546875 37.058594 7.164062 C 38.035156 8.96875 38.09375 9.714844 38.09375 20.332031 C 38.09375 30.941406 38.035156 31.699219 37.0625 33.503906 C 35.867188 35.726562 34.460938 37.101562 32.105469 38.355469 C 30.640625 39.132812 29.140625 39.257812 20.132812 39.339844 C 14.472656 39.390625 9.191406 39.265625 8.402344 39.0625 Z M 31.507812 36.558594 C 32.769531 35.945312 34.121094 34.769531 34.894531 33.601562 C 36.179688 31.660156 36.179688 31.65625 36.324219 20.976562 C 36.488281 8.777344 36.164062 7.28125 32.800781 4.714844 L 30.984375 3.332031 L 7.367188 3.332031 L 5.605469 4.675781 C 2.210938 7.265625 1.933594 8.417969 1.933594 20.089844 C 1.933594 32.910156 2.449219 34.597656 6.964844 36.671875 C 8.628906 37.4375 10.210938 37.554688 19.144531 37.5625 C 28.640625 37.574219 29.566406 37.496094 31.507812 36.558594 Z M 16.0625 29.191406 C 13.558594 28.304688 10.765625 25.28125 10.070312 22.707031 C 8.925781 18.453125 10.960938 13.988281 14.953125 12 C 16.324219 11.3125 18 10.757812 18.671875 10.757812 C 22.082031 10.765625 26.046875 13.105469 27.539062 15.992188 C 30.136719 21.015625 27.570312 27.246094 22.109375 29.171875 C 19.566406 30.070312 18.550781 30.070312 16.0625 29.191406 Z M 22.546875 26.917969 C 25.433594 25.460938 27.097656 22.28125 26.621094 19.117188 C 25.746094 13.269531 18.636719 10.710938 14.167969 14.632812 C 10.058594 18.238281 11.039062 24.824219 16.015625 27.082031 C 18.597656 28.253906 19.964844 28.21875 22.546875 26.917969 Z M 28.296875 11.019531 C 26.9375 9.378906 28.8125 6.605469 30.550781 7.691406 C 32.257812 8.765625 31.644531 11.710938 29.710938 11.710938 C 29.25 11.710938 28.613281 11.402344 28.296875 11.019531 Z M 28.296875 11.019531 " fill-opacity="1" fill-rule="nonzero"/></g></svg>