<?xml version="1.0" encoding="UTF-8" standalone="no"?>
<!-- Created with Inkscape (http://www.inkscape.org/) -->

<svg
   version="1.1"
   id="svg1"
   width="75"
   height="106"
   viewBox="0 0 75 106"
   xmlns="http://www.w3.org/2000/svg"
   xmlns:svg="http://www.w3.org/2000/svg">
  <defs
     id="defs1" />
  <g
     id="g1"
     transform="translate(-167.84908,3.6307816)"
     style="fill:#ffe6d5">
    <path
       style="fill:#ffe6d5"
       d="M 190.81663,96.879732 V 91.353898 L 186.64435,91.0464 c -5.72702,-0.422083 -6.19214,-2.597175 -0.64086,-2.996915 l 4.31314,-0.310583 0.29925,-4.614316 0.29925,-4.614317 -3.87484,-0.619612 c -4.77879,-0.764159 -11.33249,-5.055282 -14.70761,-9.630012 -5.07385,-6.877214 -5.91389,-16.477929 -2.14918,-24.562608 2.17211,-4.664563 7.55156,-10.459135 9.70986,-10.459135 1.82121,0 0.87681,2.800427 -1.46097,4.332197 -3.14206,2.058755 -7.61576,11.162769 -7.61576,15.498128 0,11.788787 9.90967,22.190314 21.11602,22.164098 7.72376,-0.01807 16.03097,-5.558774 19.34156,-12.900343 0.98617,-2.186952 2.41166,-4.213659 3.16773,-4.503794 3.00585,-1.15345 0.77803,5.542492 -3.85317,11.581121 -2.81354,3.668579 -11.56211,8.828593 -14.96848,8.828593 -1.49772,0 -1.80366,0.848098 -1.80366,5 v 5 h 4.58333 c 5.87338,0 5.56911,2.36621 -0.3607,2.805038 l -4.12193,0.305037 -0.30035,5.116355 c -0.43001,7.325038 -2.80035,7.675798 -2.80035,0.4144 z m 7.6275,-41.109 C 186.02152,51.342599 179.18618,37.75063 182.99265,25.045745 c 1.53834,-5.134525 8.19752,-12.617306 13.28527,-14.928371 6.04801,-2.7472544 13.9966,-2.4512554 20.44334,0.761294 l 5.29732,2.639765 6.63977,-6.6397654 6.63976,-6.63976603 h -4.24074 c -6.31165,0 -5.12781,-1.64021267 2.09117,-2.89734497 9.96456,-1.7352525 9.45892,-2.307733 7.56544,8.565432 -1.29856,7.4568354 -2.89735,8.3348654 -2.89735,1.591172 V 2.7574201 l -6.55071,6.5507115 -6.55071,6.5507114 2.67578,5.157459 c 7.24685,13.967972 -0.0452,30.928547 -15.09362,35.106308 -5.19873,1.443278 -9.09477,1.344318 -13.85324,-0.351878 z M 214.373,52.212027 c 7.1385,-2.695157 12.44363,-10.997197 12.44363,-19.473125 0,-19.157178 -22.06788,-28.4581537 -35.55927,-14.987209 -16.1886,16.164067 1.54683,42.603692 23.11564,34.460334 z m -2.41181,-4.88497 c -2.54705,-8.501288 -10.40451,-14.190512 -20.00675,-14.485966 -5.89655,-0.181433 -8.0761,-2.077605 -3.66163,-3.185565 6.76236,-1.697246 18.6119,3.19718 22.92641,9.469704 3.85752,5.608142 4.95157,9.188083 3.3097,10.82995 -1.15986,1.159865 -1.55355,0.756919 -2.56773,-2.628123 z"
       id="path2" />
  </g>
</svg>
