<?xml version="1.0" encoding="UTF-8" standalone="no"?>
<!-- Created with Inkscape (http://www.inkscape.org/) -->

<svg
   version="1.1"
   id="svg1"
   width="512"
   height="440"
   viewBox="0 0 512 440"
   xmlns="http://www.w3.org/2000/svg"
   xmlns:svg="http://www.w3.org/2000/svg">
  <defs
     id="defs1" />
  <g
     id="g1"
     transform="translate(-1094.8291,6.9343365)">
    <path
       style="fill:#ffe6d5"
       d="m 1115.6558,430.71871 c -6.8736,-2.38563 -11.7022,-5.78301 -15.141,-10.65305 -6.0735,-8.6014 -5.6805,2.67738 -5.6805,-163 v -152 l 2.3535,-4.73581 c 3.002,-6.040819 8.8699,-11.908746 14.9107,-14.91073 l 4.7358,-2.353456 66.6898,-0.283616 66.6897,-0.283615 0.3103,-33.716385 c 0.3045,-33.088467 0.3541,-33.804582 2.6637,-38.452194 3.002,-6.0408262 8.8699,-11.9087505 14.9107,-14.9107341 l 4.7358,-2.3534564 h 77.5 77.5 l 4.6725,2.3236821 c 6.4511,3.2081942 11.6277,8.5230538 14.7168,15.1097394 l 2.6107,5.566579 0.2999,33.216368 0.2999,33.216369 66.7001,0.283631 66.7002,0.283632 4.6724,2.323682 c 6.4511,3.208194 11.6277,8.523054 14.7169,15.109734 l 2.6107,5.56658 v 151.5 151.5 l -2.583,5.50609 c -3.2769,6.98525 -7.9257,11.63399 -14.9109,14.9109 l -5.5061,2.58301 h -95.7273 -95.7272 l -2.5538,-2.55375 c -1.4046,-1.40456 -2.8218,-4.20512 -3.1493,-6.22346 -0.5267,-3.24577 -0.1881,-4.07712 2.931,-7.19625 l 3.5265,-3.52654 h 93.053 c 70.0147,0 93.7021,-0.29578 95.675,-1.19468 5.7006,-2.59735 5.4721,1.79779 5.4721,-105.25566 0,-54.20231 -0.2802,-98.54966 -0.6226,-98.54966 -0.3424,0 -3.3932,2.5875 -6.7796,5.75 -21.3678,19.95526 -54.3522,34.6826 -85.0979,37.9957 l -7,0.7543 -0.5935,14.5 c -0.6657,16.26338 -2.3489,22.36287 -8.3345,30.20199 -14.4201,18.88545 -42.6796,20.78562 -59.4667,3.99855 -9.0405,-9.04058 -12.1053,-18.25873 -12.1053,-36.41064 v -11.7899 h -56 -56 v 11.7899 c 0,18.05984 -3.0733,27.37869 -11.9604,36.26574 -20.4708,20.47082 -54.5363,13.06868 -65.2491,-14.17809 -1.6615,-4.22595 -2.2403,-8.48272 -2.7024,-19.87755 l -0.5881,-14.5 -3,-0.26171 c -32.0368,-2.79484 -67.0934,-17.9385 -89.0978,-38.48829 -3.3864,-3.1625 -6.4372,-5.75 -6.7796,-5.75 -0.3424,0 -0.6226,44.34735 -0.6226,98.54966 0,107.05345 -0.2285,102.65831 5.4721,105.25566 1.9729,0.8989 25.6603,1.19468 95.675,1.19468 h 93.0529 l 3.5266,3.52654 c 3.1191,3.11913 3.4577,3.95048 2.931,7.19625 -0.3275,2.01834 -1.7446,4.8189 -3.149,6.22346 l -2.5536,2.55375 -94.2275,0.2252 c -88.4382,0.21135 -94.5456,0.11476 -99.406,-1.57215 z m 149.857,-141.71723 c 2.2924,-1.6147 5.215,-4.91909 6.4948,-7.3431 2.2715,-4.3026 2.3267,-5.05672 2.3267,-31.75 v -27.34272 h -20 -20 l 0.022,27.25 c 0.025,30.55377 0.4804,32.98041 7.1491,38.06689 5.0702,3.86718 7.7454,4.69528 14.0842,4.35956 4.4412,-0.23523 6.7067,-0.97506 9.9232,-3.24063 z m 192,0 c 2.2924,-1.6147 5.215,-4.91909 6.4948,-7.3431 2.2715,-4.3026 2.3267,-5.05672 2.3267,-31.75 v -27.34272 h -20 -20 l 0.022,27.25 c 0.025,30.55377 0.4804,32.98041 7.1491,38.06689 5.0702,3.86718 7.7454,4.69528 14.0842,4.35956 4.4412,-0.23523 6.7067,-0.97506 9.9232,-3.24063 z m -243.1785,-68.03582 v -11.6 l 3.4,-3.4 3.4,-3.4 h 33.2 33.2 l 3.4,3.4 3.4,3.4 v 11.6 11.6 h 56 56 v -11.6 -11.6 l 3.4,-3.4 3.4,-3.4 h 33.2 33.2 l 3.4,3.4 3.4,3.4 v 11.61182 11.61182 l 4.25,-0.57653 c 34.7554,-4.71473 59.7062,-17.34915 85.3652,-43.22672 l 10.3849,-10.47331 v -33.9232 c 0,-36.80085 -0.1916,-38.22324 -5.4721,-40.62919 -3.8061,-1.73417 -457.2498,-1.73417 -461.0559,0 -5.2799,2.40567 -5.4721,3.83134 -5.4721,40.59287 v 33.88687 l 10.423,10.53721 c 13.5533,13.70192 25.2511,22.3909 40.077,29.7687 14.8836,7.40647 33.5075,12.78049 48.25,13.92281 0.9338,0.0724 1.25,-2.83816 1.25,-11.50315 z m 216,-170.476919 V 18.411818 l -2.923,-2.923077 -2.9231,-2.923077 h -74.1539 -74.1538 l -2.9231,2.923077 -2.9231,2.923077 v 32.076923 32.076923 h 80 80 z m -83.5,381.169409 c -3.2041,-1.37205 -5.5409,-4.56964 -6.1692,-8.44192 -0.5127,-3.15931 -0.1543,-4.02704 2.9427,-7.12403 2.566,-2.56599 4.3981,-3.52654 6.7265,-3.52654 2.3284,0 4.1606,0.96055 6.7266,3.52654 3.1191,3.11913 3.4577,3.95048 2.931,7.19625 -1.0341,6.37235 -7.7884,10.66885 -13.1576,8.3697 z"
       id="path2" />
  </g>
</svg>
