<?xml version="1.0" encoding="iso-8859-1"?>
<!-- Generator: Adobe Illustrator 25.2.3, SVG Export Plug-In . SVG Version: 6.00 Build 0)  -->
<svg version="1.1" id="&#x421;&#x43B;&#x43E;&#x439;_1"
	 xmlns="http://www.w3.org/2000/svg" xmlns:xlink="http://www.w3.org/1999/xlink" x="0px" y="0px" viewBox="0 0 48 48"
	 style="enable-background:new 0 0 48 48;" xml:space="preserve">
<g>
	<path style="fill:#4B7BB2;" d="M5.94,10.403c4.128-0.979,8.335-1.57,12.558-1.763c0.01,4.802,0.02,9.603,0.031,14.405
		c-2.134-0.044-4.269-0.088-6.403-0.133c-1.067-0.022-2.134-0.044-3.201-0.066c-0.61-0.013-2.549,0.286-3.03-0.071
		c-0.806-0.597-0.166-4.549-0.136-5.643C5.818,14.889,5.879,12.646,5.94,10.403z"/>
	<path style="fill:#010101;" d="M18.528,23.545c-0.004,0-0.007,0-0.011,0l-9.604-0.199c-0.164-0.012-0.417,0.018-0.712,0.04
		c-1.232,0.093-2.144,0.133-2.605-0.208c-0.786-0.583-0.666-2.509-0.428-4.968c0.045-0.46,0.083-0.848,0.09-1.09l0.182-6.729
		c0.006-0.227,0.164-0.42,0.385-0.473C9.974,8.932,14.23,8.334,18.476,8.14c0.12-0.01,0.269,0.043,0.367,0.138
		s0.155,0.225,0.155,0.361l0.03,14.405c0,0.135-0.054,0.264-0.149,0.358C18.785,23.494,18.659,23.545,18.528,23.545z M8.889,22.345
		c0.016,0,0.031,0,0.046,0l9.093,0.188L17.999,9.165c-3.882,0.208-7.77,0.758-11.57,1.637l-0.171,6.344
		c-0.008,0.258-0.047,0.67-0.094,1.16c-0.089,0.912-0.358,3.688,0.031,4.072c0.241,0.138,1.425,0.049,1.931,0.011
		C8.436,22.365,8.707,22.345,8.889,22.345z"/>
</g>
<g>
	<path style="fill:#4B7BB2;" d="M20.891,23.22c6.172,0.036,12.318,0.283,18.489,0.319c0.571,0.003,1.201-0.015,1.621-0.395
		c0.478-0.432,0.498-1.156,0.484-1.796c-0.107-4.873-0.189-9.958-0.297-14.83c-4.754,0.488-9.508,0.976-14.262,1.463
		c-1.303,0.134-5.099-0.144-5.809,1.06c-0.392,0.666-0.126,2.036-0.132,2.768c-0.01,1.161-0.019,2.322-0.029,3.483
		C20.936,17.935,20.914,20.577,20.891,23.22z"/>
	<path style="fill:#010101;" d="M39.465,24.04c-0.029,0-0.058,0-0.087,0c-3.09-0.018-6.224-0.09-9.253-0.16
		c-3.026-0.069-6.154-0.142-9.236-0.159c-0.133-0.001-0.26-0.054-0.354-0.149c-0.093-0.095-0.145-0.222-0.144-0.355l0.096-11.412
		c0.002-0.186-0.017-0.416-0.035-0.665c-0.061-0.812-0.13-1.731,0.236-2.352c0.635-1.079,2.64-1.208,4.998-1.256
		c0.48-0.01,0.899-0.018,1.19-0.048L41.139,6.02c0.138-0.013,0.277,0.031,0.382,0.123c0.104,0.093,0.166,0.225,0.169,0.364
		c0.054,2.437,0.101,4.927,0.148,7.417c0.047,2.489,0.095,4.978,0.148,7.413c0.016,0.755-0.02,1.609-0.648,2.178
		C40.816,23.986,40.131,24.04,39.465,24.04z M21.396,22.724c2.928,0.022,5.886,0.09,8.752,0.156
		c3.026,0.069,6.154,0.142,9.236,0.159c0.512-0.006,1.005-0.015,1.283-0.266c0.316-0.287,0.331-0.88,0.319-1.415
		c-0.054-2.437-0.101-4.926-0.148-7.417c-0.044-2.304-0.088-4.609-0.137-6.872L26.979,8.479c-0.311,0.032-0.758,0.042-1.271,0.052
		c-1.312,0.027-3.753,0.078-4.157,0.764c-0.207,0.351-0.146,1.171-0.101,1.77c0.021,0.28,0.04,0.539,0.038,0.748L21.396,22.724z"/>
</g>
<g>
	<path style="fill:#4B7BB2;" d="M5.32,34.387c-0.016,0.643-0.022,1.329,0.307,1.873c0.509,0.842,1.594,1.026,2.548,1.129
		c3.261,0.353,7.279,1.118,10.54,1.47c0.165-4.269-0.427-8.95-0.262-13.218c-3.772-0.057-7.545-0.131-11.317-0.172
		c-2.017-0.022-1.619,1.152-1.665,2.963C5.421,30.417,5.371,32.402,5.32,34.387z"/>
	<path style="fill:#010101;" d="M18.716,39.36c-0.018,0-0.036-0.001-0.054-0.003c-1.642-0.177-3.498-0.462-5.293-0.738
		c-1.783-0.274-3.628-0.557-5.248-0.732c-0.783-0.084-2.241-0.242-2.922-1.367c-0.416-0.689-0.395-1.531-0.379-2.145l0.151-5.955
		c0.007-0.281,0.003-0.546,0-0.793c-0.013-0.877-0.024-1.636,0.486-2.148c0.355-0.356,0.902-0.506,1.685-0.509
		c2.528,0.028,5.058,0.07,7.586,0.112l3.733,0.061c0.135,0.002,0.263,0.059,0.355,0.156c0.092,0.098,0.142,0.229,0.137,0.363
		c-0.082,2.114,0.025,4.379,0.13,6.57c0.105,2.209,0.214,4.493,0.132,6.647c-0.006,0.139-0.068,0.269-0.173,0.359
		C18.951,39.317,18.835,39.36,18.716,39.36z M7.08,25.969c-0.464,0-0.771,0.072-0.913,0.215c-0.213,0.213-0.205,0.776-0.195,1.428
		c0.003,0.26,0.007,0.538,0,0.833L5.82,34.4l0,0c-0.017,0.637-0.011,1.197,0.234,1.603c0.392,0.647,1.327,0.799,2.174,0.89
		c1.642,0.177,3.498,0.462,5.293,0.738c1.59,0.244,3.228,0.496,4.711,0.671c0.047-1.955-0.052-4.02-0.147-6.023
		c-0.097-2.038-0.197-4.14-0.146-6.146l-3.227-0.052c-2.526-0.042-5.054-0.084-7.581-0.112C7.114,25.969,7.097,25.969,7.08,25.969z
		 M5.32,34.387h0.01H5.32z"/>
</g>
<g>
	<path style="fill:#4B7BB2;" d="M21.081,39.428c6.726,0.794,13.452,1.589,20.178,2.383c0.034-5.006,0.069-10.012,0.103-15.019
		c0.001-0.031-12.954-0.585-14.13-0.638c-1.258-0.057-5.384-0.857-6.206,0.085c-0.464,0.532-0.165,1.842-0.153,2.452
		c0.021,1.066,0.041,2.132,0.062,3.198C20.984,34.402,21.032,36.915,21.081,39.428z"/>
	<path style="fill:#010101;" d="M41.259,42.311c-0.02,0-0.039-0.001-0.059-0.003l-20.178-2.383
		c-0.248-0.029-0.437-0.237-0.441-0.487l-0.208-10.736c-0.003-0.134-0.021-0.305-0.041-0.494c-0.08-0.77-0.18-1.728,0.316-2.297
		c0.746-0.856,2.889-0.679,5.396-0.38c0.502,0.06,0.93,0.111,1.21,0.124l9.432,0.413c5.191,0.231,5.191,0.231,5.176,0.741
		l-0.104,15.006c-0.001,0.142-0.062,0.277-0.169,0.372C41.498,42.267,41.38,42.311,41.259,42.311z M21.572,38.982l19.19,2.266
		l0.097-13.988c-1.821-0.094-8.683-0.392-11.822-0.528l-1.827-0.08c-0.298-0.014-0.751-0.067-1.283-0.13
		c-1.216-0.145-4.063-0.483-4.524,0.044c-0.21,0.241-0.123,1.083-0.075,1.536c0.022,0.221,0.043,0.421,0.046,0.578L21.572,38.982z"
		/>
</g>
</svg>